<?xml version="1.0" encoding="utf-8"?>
<!-- Generator: Adobe Illustrator 22.1.0, SVG Export Plug-In . SVG Version: 6.00 Build 0)  -->
<svg version="1.1" id="Layer_1" xmlns="http://www.w3.org/2000/svg" xmlns:xlink="http://www.w3.org/1999/xlink" x="0px" y="0px"
	 viewBox="0 0 211.5 94.3" style="enable-background:new 0 0 211.5 94.3;" xml:space="preserve">
<style type="text/css">
	.st0{fill:#FFFFFF;}
</style>
<path class="st0" d="M39.8,65.8L45,38.1H33.7l1.4-6.9c1.6,0,3.1-0.1,4.7-0.4c1.6-0.3,2.9-0.8,4.3-1.5c1.3-0.7,2.4-1.7,3.5-2.8
	c1.1-1.2,1.9-2.6,2.4-4.3h7.2l-8.4,43.5L39.8,65.8C39.8,65.7,39.8,65.8,39.8,65.8z M85.3,41.4l-1.5,7.8H67.5l1.5-7.8H85.3z
	 M50.7,4.7h7.8L56,18.2h-7.8L50.7,4.7z M6.7,50.8L8.2,43h14.9l-1.5,7.8H6.7z M44.2,87.5h-7.8L39,74h7.8L44.2,87.5z M84.9,23.9
	l1.3,3.2l-9.9,5.2l-1.3-3.2C75.1,29.1,84.9,23.9,84.9,23.9z M72,10.3l2.9,1.9L68.1,21l-2.9-1.9L72,10.3z M31.9,12.8l3.6-1.9l3.4,8.9
	l-3.6,2C35.3,21.8,31.9,12.8,31.9,12.8z M15.3,28.3l2.5-3.2l7.9,5.2l-2.5,3.2C23.2,33.5,15.3,28.3,15.3,28.3z M10.2,68l-1.3-3.3
	l9.9-5.1l1.3,3.2C20.2,62.8,10.2,68,10.2,68z M23.1,81.6l-2.9-1.9l6.8-8.9l2.9,1.9L23.1,81.6z M63.3,79.1L59.7,81l-3.4-8.9l3.6-1.9
	L63.3,79.1z M79.8,63.6l-2.5,3.2l-7.9-5.1l2.5-3.2L79.8,63.6z M116.3,61.6c-1.5,1.8-3.1,3.1-5,3.9c-1.9,0.8-3.9,1.2-6.1,1.2
	c-2.5,0-4.6-0.5-6.2-1.5c-1.7-1-3-2.2-3.9-3.9c-0.9-1.7-1.5-3.5-1.7-5.7c-0.2-2.1-0.1-4.4,0.4-6.7c0.4-2.2,1.2-4.4,2.1-6.4
	c1-2,2.3-3.9,3.8-5.5c1.6-1.6,3.3-2.8,5.4-3.8s4.3-1.5,6.7-1.5c2,0,3.8,0.4,5.4,1.3c1.7,0.9,2.8,2,3.5,3.7h0.2l2.6-13.8h9.1
	l-8.2,42.9h-8.7l0.8-4.2C116.5,61.7,116.3,61.6,116.3,61.6z M119.1,45.1c0-1.3-0.2-2.3-0.7-3.3s-1.1-1.8-2-2.3
	c-0.9-0.6-2-0.9-3.6-0.9c-1.5,0-2.8,0.3-4,0.9c-1.2,0.6-2.1,1.4-2.9,2.3s-1.5,2.1-2,3.4c-0.5,1.3-0.9,2.5-1.2,4
	c-0.3,1.3-0.4,2.5-0.3,3.9c0.1,1.3,0.3,2.4,0.8,3.4s1.2,1.9,2,2.4c0.9,0.6,2,1,3.5,1s2.8-0.3,3.9-0.9c1.2-0.6,2-1.4,2.9-2.4
	c0.8-1,1.5-2.1,2-3.4s0.9-2.6,1.2-4C119,47.7,119.1,46.3,119.1,45.1z M137.8,37.6c1.2-1.5,2.6-2.5,4.3-3.4c1.7-0.9,3.4-1.5,5.3-1.9
	c1.9-0.4,3.8-0.6,5.7-0.6c1.7,0,3.3,0.1,5.1,0.4c1.7,0.2,3.1,0.7,4.4,1.4c1.3,0.7,2.2,1.7,2.9,2.8c0.7,1.2,0.8,2.8,0.4,4.9
	l-3.3,17.3c-0.3,1.5-0.5,2.9-0.6,4.3c-0.1,1.4,0,2.4,0.3,3.1h-9.3c-0.1-0.5-0.1-1.1-0.1-1.6c0-0.6,0-1.1,0.1-1.7
	c-1.8,1.5-3.7,2.5-5.8,3.1c-2,0.6-4.2,0.9-6.2,0.9c-1.6,0-3-0.2-4.3-0.6c-1.3-0.4-2.4-1-3.2-1.8c-0.9-0.8-1.5-1.9-1.9-3.1
	c-0.4-1.3-0.4-2.7,0-4.4c0.4-1.9,1-3.4,1.9-4.7c0.9-1.2,2-2.1,3.1-2.9c1.2-0.7,2.5-1.3,3.9-1.7c1.5-0.4,2.8-0.7,4.3-0.9
	c1.5-0.2,2.8-0.4,4.2-0.5c1.4-0.1,2.5-0.3,3.6-0.6s2-0.6,2.6-1.2c0.7-0.5,1.1-1.2,1.3-2.1s0.2-1.8,0-2.3c-0.2-0.6-0.6-1.1-1.1-1.4
	c-0.5-0.3-1.1-0.6-1.8-0.7s-1.5-0.2-2.2-0.2c-1.9,0-3.3,0.4-4.5,1.2c-1.2,0.8-2,2-2.5,3.9h-9.1C135.7,40.7,136.6,38.9,137.8,37.6
	L137.8,37.6z M153.5,50.2c-0.6,0.2-1.3,0.4-2,0.5c-0.7,0.1-1.5,0.2-2.1,0.3c-0.8,0.1-1.5,0.2-2.2,0.3c-0.7,0.1-1.5,0.3-2.1,0.5
	s-1.4,0.5-2,0.9c-0.6,0.4-1.1,0.8-1.5,1.4c-0.4,0.6-0.7,1.3-0.9,2.1c-0.2,0.8-0.1,1.5,0.1,2c0.2,0.6,0.5,1,1,1.4
	c0.5,0.3,1,0.6,1.7,0.7c0.7,0.1,1.4,0.2,2.1,0.2c1.9,0,3.3-0.3,4.4-0.9c1.1-0.6,2-1.3,2.6-2.1s1.1-1.7,1.4-2.5
	c0.3-0.9,0.5-1.6,0.6-2l0.7-3.4C154.6,49.9,154.1,50,153.5,50.2z M178.4,75.6c-2,1.2-4.5,1.8-7.6,1.8c-1,0-1.9,0-2.7-0.1
	c-0.9-0.1-1.9-0.1-2.7-0.2l1.5-7.5c0.9,0.1,1.7,0.2,2.6,0.3c0.9,0.1,1.8,0.1,2.6,0.1c1.3-0.1,2.2-0.6,2.9-1.4
	c0.8-0.8,1.2-1.8,1.4-2.7c0.1-0.7,0.1-1.4,0-2l-5.7-31.2h9.7l3.1,22.7h0.1l11.6-22.7h9.5l-21.1,37.4
	C182.2,72.6,180.5,74.4,178.4,75.6L178.4,75.6z"/>
</svg>
