<?xml version="1.0" encoding="utf-8"?>
<!-- Generator: Adobe Illustrator 23.0.2, SVG Export Plug-In . SVG Version: 6.00 Build 0)  -->
<svg version="1.1" id="Layer_1" xmlns="http://www.w3.org/2000/svg" xmlns:xlink="http://www.w3.org/1999/xlink" x="0px" y="0px"
	 viewBox="0 0 125.4 78.4" style="enable-background:new 0 0 125.4 78.4;" xml:space="preserve">
<style type="text/css">
	.st0{fill:#FFFFFF;stroke:#BBBBBB;stroke-width:2;stroke-miterlimit:10;}
	.st1{fill:#E20D17;}
	.st2{fill:#EA610A;}
	.st3{fill:#F59E00;}
</style>
<path class="st0" d="M124.1,73c0,2.3-1.9,4.1-4.1,4.1H5.4c-2.3,0-4.1-1.9-4.1-4.1V5.4c0-2.3,1.9-4.1,4.1-4.1h114.7
	c2.3,0,4.1,1.9,4.1,4.1L124.1,73L124.1,73z"/>
<path d="M37.8,62.9c-0.2-0.2-0.5-0.4-0.8-0.5s-0.6-0.2-1-0.2h-0.6c-0.2,0-0.4,0.1-0.6,0.2l-0.6,0.3c-0.2,0.1-0.3,0.3-0.5,0.6
	c-0.2-0.4-0.5-0.6-0.9-0.8s-0.8-0.3-1.2-0.3h-0.5c-0.2,0-0.3,0.1-0.5,0.1c-0.2,0.1-0.3,0.2-0.5,0.3s-0.3,0.3-0.4,0.5v-0.8h-1.3v6.3
	h1.3v-3.5c0-0.3,0-0.5,0.1-0.7s0.2-0.4,0.3-0.5c0.1-0.1,0.3-0.2,0.5-0.3s0.4-0.1,0.6-0.1c0.5,0,0.8,0.1,1,0.4
	c0.2,0.3,0.4,0.7,0.4,1.2v3.5h1.3v-3.5c0-0.3,0-0.5,0.1-0.7s0.2-0.4,0.3-0.5s0.3-0.2,0.5-0.3s0.4-0.1,0.6-0.1c0.5,0,0.8,0.1,1,0.4
	c0.2,0.3,0.4,0.7,0.4,1.2v3.5h1.3v-4c0-0.4-0.1-0.7-0.2-1C38.2,63.4,38,63.1,37.8,62.9L37.8,62.9z M44.9,63.1
	c-0.2-0.3-0.5-0.5-0.8-0.7s-0.7-0.3-1.2-0.3c-0.4,0-0.9,0.1-1.2,0.2c-0.4,0.2-0.7,0.4-1,0.7s-0.5,0.6-0.7,1.1
	c-0.2,0.4-0.2,0.9-0.2,1.3c0,0.5,0.1,0.9,0.2,1.3c0.2,0.4,0.4,0.8,0.7,1.1c0.3,0.3,0.6,0.5,1,0.7s0.8,0.2,1.2,0.2
	c0.5,0,0.8-0.1,1.2-0.3c0.3-0.2,0.6-0.4,0.8-0.7v0.8h1.4v-6.3h-1.4C44.9,62.2,44.9,63.1,44.9,63.1z M44.8,66.3
	c-0.1,0.2-0.2,0.5-0.4,0.6c-0.2,0.2-0.4,0.3-0.6,0.4c-0.2,0.1-0.5,0.2-0.8,0.2s-0.6-0.1-0.8-0.2s-0.4-0.3-0.6-0.4
	c-0.2-0.2-0.3-0.4-0.4-0.6c-0.1-0.2-0.1-0.5-0.1-0.8s0-0.5,0.1-0.8c0.1-0.2,0.2-0.5,0.4-0.6c0.2-0.2,0.4-0.3,0.6-0.4
	c0.2-0.1,0.5-0.2,0.8-0.2s0.5,0.1,0.8,0.2c0.2,0.1,0.4,0.2,0.6,0.4c0.2,0.2,0.3,0.4,0.4,0.6c0.1,0.2,0.1,0.5,0.1,0.8
	S44.9,66.1,44.8,66.3z M52.6,65.5c-0.4-0.3-0.9-0.5-1.6-0.6l-0.7-0.1c-0.1,0-0.3,0-0.4-0.1c-0.1,0-0.2-0.1-0.3-0.1s-0.2-0.1-0.2-0.2
	c-0.1-0.1-0.1-0.2-0.1-0.3c0-0.2,0.1-0.4,0.3-0.5s0.5-0.2,0.9-0.2c0.2,0,0.4,0,0.6,0.1c0.2,0,0.4,0.1,0.5,0.1
	c0.2,0.1,0.3,0.1,0.5,0.2c0.1,0.1,0.3,0.1,0.4,0.2l0.6-1.1c-0.3-0.2-0.7-0.4-1.2-0.5c-0.4-0.1-0.9-0.2-1.4-0.2c-0.4,0-0.8,0-1.1,0.1
	s-0.6,0.2-0.8,0.4s-0.4,0.4-0.5,0.6c-0.1,0.3-0.2,0.5-0.2,0.8c0,0.5,0.2,0.9,0.5,1.2c0.4,0.3,0.9,0.5,1.6,0.6l0.7,0.1
	c0.4,0.1,0.7,0.1,0.8,0.3c0.2,0.1,0.3,0.3,0.3,0.4c0,0.2-0.1,0.4-0.4,0.6c-0.2,0.1-0.6,0.2-1.1,0.2c-0.3,0-0.5,0-0.7-0.1
	c-0.2,0-0.4-0.1-0.6-0.1c-0.2-0.1-0.3-0.1-0.5-0.2c-0.1-0.1-0.3-0.2-0.4-0.2l-0.6,1c0.2,0.2,0.5,0.3,0.7,0.4
	c0.3,0.1,0.5,0.2,0.7,0.2c0.2,0.1,0.5,0.1,0.7,0.1h0.6c0.5,0,0.9-0.1,1.2-0.2c0.4-0.1,0.7-0.2,0.9-0.4c0.2-0.2,0.4-0.4,0.6-0.7
	c0.1-0.3,0.2-0.5,0.2-0.8C53.2,66.3,53,65.8,52.6,65.5z M65.5,63.1c-0.3-0.3-0.6-0.5-0.9-0.7c-0.4-0.2-0.8-0.2-1.2-0.2
	c-0.5,0-0.9,0.1-1.3,0.2c-0.4,0.2-0.7,0.4-1,0.7s-0.5,0.6-0.6,1.1c-0.2,0.4-0.2,0.9-0.2,1.4s0.1,1,0.2,1.4c0.2,0.4,0.4,0.8,0.7,1
	c0.3,0.3,0.6,0.5,1,0.7s0.8,0.2,1.3,0.2s0.9-0.1,1.4-0.2c0.4-0.1,0.8-0.4,1.2-0.7l-0.7-1c-0.3,0.2-0.6,0.4-0.9,0.5s-0.6,0.2-1,0.2
	c-0.2,0-0.4,0-0.6-0.1l-0.6-0.3c-0.2-0.1-0.3-0.3-0.4-0.5c-0.1-0.2-0.2-0.4-0.2-0.7h4.7v-0.6c0-0.5-0.1-0.9-0.2-1.3
	C65.9,63.8,65.7,63.4,65.5,63.1z M61.6,65c0-0.2,0.1-0.4,0.2-0.6c0.1-0.2,0.2-0.4,0.3-0.5s0.3-0.2,0.5-0.3s0.4-0.1,0.7-0.1
	c0.4,0,0.8,0.1,1.1,0.4c0.3,0.3,0.5,0.7,0.5,1.1C64.9,65,61.6,65,61.6,65z M83.7,63.1c-0.2-0.3-0.5-0.5-0.8-0.7s-0.7-0.3-1.2-0.3
	c-0.4,0-0.9,0.1-1.2,0.2c-0.4,0.2-0.7,0.4-1,0.7s-0.5,0.6-0.7,1.1c-0.2,0.4-0.2,0.9-0.2,1.3c0,0.5,0.1,0.9,0.2,1.3
	c0.2,0.4,0.4,0.8,0.7,1.1c0.3,0.3,0.6,0.5,1,0.7s0.8,0.2,1.2,0.2c0.5,0,0.8-0.1,1.2-0.3c0.3-0.2,0.6-0.4,0.8-0.7v0.8h1.4v-6.3h-1.4
	C83.7,62.2,83.7,63.1,83.7,63.1z M83.7,66.3c-0.1,0.2-0.2,0.5-0.4,0.6c-0.2,0.2-0.4,0.3-0.6,0.4s-0.5,0.2-0.8,0.2s-0.6-0.1-0.8-0.2
	s-0.4-0.3-0.6-0.4s-0.3-0.4-0.4-0.6S80,65.8,80,65.5s0-0.5,0.1-0.8c0.1-0.2,0.2-0.5,0.4-0.6c0.2-0.2,0.4-0.3,0.6-0.4
	c0.2-0.1,0.5-0.2,0.8-0.2s0.5,0.1,0.8,0.2c0.2,0.1,0.4,0.2,0.6,0.4c0.2,0.2,0.3,0.4,0.4,0.6s0.1,0.5,0.1,0.8S83.8,66.1,83.7,66.3z
	 M58.5,67.4c-0.2,0.1-0.4,0.1-0.7,0.1c-0.1,0-0.3,0-0.4-0.1c-0.1,0-0.2-0.1-0.3-0.2s-0.2-0.2-0.2-0.4s-0.1-0.3-0.1-0.5v-2.7H59v-1.3
	h-2.2v-1.9h-1.4v1.9h-1.3v1.3h1.3v2.8c0,0.8,0.2,1.5,0.6,1.9c0.4,0.4,1,0.6,1.7,0.6c0.4,0,0.8-0.1,1.1-0.2l0.6-0.3l-0.5-1.2
	C58.8,67.3,58.6,67.4,58.5,67.4z M70.9,62.2c-0.4,0-0.7,0.1-1,0.2c-0.3,0.1-0.6,0.5-0.8,0.8v-0.8h-1.2v6.3h1.3v-3.5
	c0-0.3,0-0.5,0.1-0.7s0.2-0.4,0.3-0.5c0.1-0.1,0.3-0.3,0.5-0.3c0.2-0.1,0.4-0.1,0.6-0.1s0.3,0,0.5,0.1c0.1,0,0.2,0,0.3,0.1l0.4-1.3
	c-0.1,0-0.2-0.1-0.3-0.1C71.3,62.2,71.1,62.2,70.9,62.2z M90,62.2c-0.4,0-0.7,0.1-1,0.2c-0.3,0.1-0.6,0.5-0.8,0.8v-0.8H87v6.3h1.3
	v-3.5c0-0.3,0-0.5,0.1-0.7s0.2-0.4,0.3-0.5c0.1-0.1,0.3-0.3,0.5-0.3c0.2-0.1,0.4-0.1,0.6-0.1s0.3,0,0.5,0.1c0.1,0,0.2,0,0.3,0.1
	l0.4-1.3c-0.1,0-0.2-0.1-0.3-0.1C90.4,62.2,90.2,62.2,90,62.2L90,62.2z M96.5,59.8v3.3c-0.2-0.3-0.5-0.5-0.8-0.7s-0.7-0.3-1.2-0.3
	c-0.4,0-0.9,0.1-1.2,0.2c-0.4,0.2-0.7,0.4-1,0.7s-0.5,0.6-0.7,1.1c-0.2,0.4-0.2,0.9-0.2,1.3c0,0.5,0.1,0.9,0.2,1.3
	c0.2,0.4,0.4,0.8,0.7,1.1c0.3,0.3,0.6,0.5,1,0.7s0.8,0.2,1.2,0.2c0.5,0,0.8-0.1,1.2-0.3c0.3-0.2,0.6-0.4,0.8-0.7v0.8h1.4v-8.9h-1.4
	V59.8z M96.4,66.3c-0.1,0.2-0.2,0.5-0.4,0.6c-0.2,0.2-0.4,0.3-0.6,0.4s-0.5,0.2-0.8,0.2s-0.6-0.1-0.8-0.2c-0.2-0.1-0.4-0.3-0.6-0.4
	c-0.2-0.2-0.3-0.4-0.4-0.6s-0.1-0.5-0.1-0.8s0-0.5,0.1-0.8c0.1-0.2,0.2-0.5,0.4-0.6c0.2-0.2,0.4-0.3,0.6-0.4
	c0.2-0.1,0.5-0.2,0.8-0.2s0.5,0.1,0.8,0.2c0.2,0.1,0.4,0.2,0.6,0.4c0.2,0.2,0.3,0.4,0.4,0.6s0.1,0.5,0.1,0.8S96.5,66.1,96.4,66.3z
	 M74.2,64.1c0.2-0.2,0.4-0.3,0.6-0.4c0.2-0.1,0.5-0.1,0.8-0.1s0.6,0,0.9,0.1s0.5,0.2,0.7,0.4l0.7-1.1c-0.2-0.2-0.5-0.4-0.8-0.5
	c-0.4-0.2-0.9-0.3-1.4-0.3s-0.9,0.1-1.4,0.3c-0.4,0.2-0.8,0.4-1.1,0.7c-0.3,0.3-0.5,0.6-0.7,1.1c-0.2,0.4-0.3,0.8-0.3,1.3
	s0.1,0.9,0.3,1.3c0.2,0.4,0.4,0.8,0.7,1.1c0.3,0.3,0.7,0.5,1.1,0.7s0.9,0.3,1.4,0.3s0.9-0.1,1.4-0.3c0.3-0.1,0.6-0.3,0.8-0.5
	L77.1,67c-0.2,0.2-0.4,0.3-0.7,0.4c-0.3,0.1-0.6,0.1-0.9,0.1s-0.5,0-0.8-0.1c-0.2-0.1-0.5-0.2-0.6-0.4c-0.2-0.2-0.3-0.4-0.4-0.6
	s-0.2-0.5-0.2-0.8s0.1-0.6,0.2-0.8C73.9,64.5,74,64.3,74.2,64.1z"/>
<path class="st1" d="M54.1,32.9c0-7.6,3.5-14.3,9-18.6c-4.1-3.2-9.2-5.1-14.8-5.1C35.2,9.2,24.5,19.8,24.5,33s10.6,23.8,23.8,23.8
	c5.6,0,10.7-1.9,14.8-5.1C57.6,47.2,54.1,40.4,54.1,32.9z"/>
<ellipse class="st2" cx="63.1" cy="32.9" rx="9" ry="18.6"/>
<path class="st3" d="M77.9,9.1c-5.6,0-10.7,1.9-14.8,5.1c5.5,4.4,9,11.1,9,18.6s-3.5,14.3-9,18.6c4.1,3.2,9.2,5.1,14.8,5.1
	c13.1,0,23.8-10.6,23.8-23.8S91,9.1,77.9,9.1z"/>
</svg>
