<svg xmlns="http://www.w3.org/2000/svg" viewBox="0 0 125.4 78.4"><path d="M125.4 74.2c0 2.3-1.9 4.2-4.2 4.2H4.2c-2.3 0-4.2-1.9-4.2-4.2v-70C0 1.9 1.9 0 4.2 0h117.1c2.3 0 4.2 1.9 4.2 4.2l-.1 70z" fill="#3957a7"/><path d="M56.5 51.9h-7.2l4.5-27.8h7.3l-4.6 27.8zM43.2 24.2l-6.8 19.1-.8-4.1L33 26.6s-.4-2.5-3.4-2.5H18.2l-.1.5s3.5.7 7.5 3.2L32 51.9h7.5l11.4-27.8h-7.7zm56.7 27.7h6.6l-5.8-27.7H95c-2.7 0-3.3 2.1-3.3 2.1L81 51.9h7.5l1.5-4.1h9.2l.7 4.1zM92 42.1l3.8-10.4 2.1 10.4H92zM81.4 30.9l1.1-6s-3.2-1.2-6.5-1.2c-3.5 0-12.1 1.5-12.1 9.2 0 7.2 10 7.3 10 10.9 0 3.8-8.9 3.1-11.9.7l-1.1 6.2s3.2 1.5 8.1 1.5c4.9 0 12.4-2.6 12.4-9.5 0-7.2-10.1-7.9-10.1-10.9.1-3 7.1-2.6 10.1-.9z" fill="#fff"/><path d="M35.5 39.1L33 26.6s-.4-2.5-3.4-2.5H18.2l-.1.5s5.4 1.2 10.7 5.4c5.1 4.1 6.7 9.1 6.7 9.1z" fill="#f9a533"/></svg>