<svg id="Layer_1" xmlns="http://www.w3.org/2000/svg" viewBox="0 0 125.4 78.4"><style>.st1{fill:#fff}</style><path d="M125.4 74.2c0 2.3-1.9 4.2-4.2 4.2H4.2c-2.3 0-4.2-1.9-4.2-4.2v-70C0 1.9 1.9 0 4.2 0h117.1c2.3 0 4.2 1.9 4.2 4.2v70z" fill="#3957a7"/><path class="st1" d="M55.9 39.9h-7L53.3 13h7zM43 13l-6.7 18.5-.8-4-2.4-12.1s-.3-2.4-3.3-2.4H18.7l-.1.5s3.4.7 7.3 3.1L32 39.9h7.3l11.2-27H43zm55.2 26.9h6.4L99 13h-5.6c-2.6 0-3.2 2-3.2 2L79.6 39.9H87l1.5-4h8.9l.8 4zm-7.8-9.5l3.7-10.1 2.1 10.1h-5.8zm-10.2-11l1-5.8s-3.1-1.2-6.3-1.2c-3.5 0-11.8 1.5-11.8 8.9 0 7 9.7 7.1 9.7 10.7 0 3.7-8.7 3-11.6.7l-1 6.1s3.1 1.5 7.9 1.5c4.8 0 12-2.5 12-9.2 0-7-9.8-7.7-9.8-10.7.1-3 6.9-2.6 9.9-1z"/><path d="M35.5 27.5l-2.4-12.1s-.3-2.4-3.3-2.4H18.7l-.1.5s5.3 1.1 10.4 5.2c4.9 3.9 6.5 8.8 6.5 8.8z" fill="#f9a533"/><path class="st1" d="M27.4 60.3c-1.7 0-3-.4-3.9-1.2-.9-.8-1.4-2-1.4-3.6 0-1.2.2-2.3.6-3.3.4-1 1-1.9 1.7-2.6.7-.7 1.5-1.3 2.5-1.7 1-.4 2-.6 3.1-.6.9 0 1.7.1 2.4.3.7.2 1.4.4 2 .8l-.7 3h-.4c-.5-.6-1.1-1-1.6-1.3s-1.2-.4-1.9-.4c-1.2 0-2.3.5-3.1 1.5-.8 1-1.2 2.3-1.2 3.8 0 1 .2 1.7.7 2.2.5.5 1.1.7 2 .7.8 0 1.5-.2 2.2-.5.7-.3 1.3-.7 1.9-1.2h.3l-.7 3c-.2.1-.5.2-.9.4-.3.1-.7.3-1 .3-.4.1-.8.2-1.1.3-.4.1-.9.1-1.5.1zm17.1-7.5v.5c0 .2-.1.4-.1.6L43 60.1h-3.1l1.1-4.7c.1-.3.1-.7.2-.9.1-.2.1-.5.1-.7 0-.4-.1-.6-.3-.8-.2-.2-.5-.2-1-.2-.2 0-.5.1-.8.2-.3.1-.7.3-1 .5l-1.5 6.7h-3l3-13.1h3l-1.1 4.7c.6-.4 1.2-.7 1.7-1 .5-.2 1.1-.3 1.7-.3.9 0 1.5.2 2 .6.3.4.5 1 .5 1.7zm6.1 7.6c-1.6 0-2.8-.3-3.7-1.1-.9-.7-1.3-1.7-1.3-3 0-.9.1-1.6.4-2.4.3-.7.7-1.3 1.2-1.9.5-.5 1.2-.9 1.9-1.3.8-.3 1.6-.5 2.5-.5 1.4 0 2.5.3 3.2.9s1.1 1.4 1.1 2.5c0 .4 0 .8-.1 1.1-.1.4-.2.7-.3 1.1h-7v.2c0 .6.2 1.2.7 1.5.5.4 1.2.6 2.1.6.7 0 1.3-.1 1.9-.3.6-.2 1.1-.5 1.5-.8h.3l-.6 2.4c-.6.3-1.2.5-1.9.6-.5.3-1.2.4-1.9.4zm2.3-6.2v-.6c0-.4-.1-.8-.4-1-.3-.2-.7-.3-1.2-.3-.6 0-1.2.2-1.6.5s-.8.8-1 1.4h4.2zm8.2 6.2c-.6 0-1.2-.1-1.8-.2-.6-.2-1-.4-1.5-.8-.4-.3-.7-.8-1-1.2-.2-.5-.3-1.1-.3-1.7 0-.8.2-1.6.5-2.4.3-.7.8-1.4 1.4-1.9.6-.5 1.3-1 2.1-1.3.8-.3 1.7-.5 2.7-.5.6 0 1.2.1 1.7.2.6.1 1.1.3 1.6.6l-.6 2.6h-.4c-.3-.4-.7-.7-1.1-.9s-.9-.3-1.4-.3c-.9 0-1.7.3-2.3 1-.6.7-.9 1.5-.9 2.5 0 .7.2 1.2.5 1.6.3.3.9.5 1.7.5.6 0 1.1-.1 1.6-.3.5-.2.9-.5 1.2-.8h.4l-.6 2.6c-.6.3-1.1.5-1.6.6-.5 0-1.1.1-1.9.1zm15-.3h-3.2L71 55.9l-1.3 1.2-.7 3h-3L69 47h3l-1.8 7.8 4.2-4.2h3.5l-4.4 4.1 2.6 5.4zm11.8-6c0 .9-.1 1.7-.4 2.5-.3.8-.7 1.4-1.3 2-.6.6-1.2 1-1.9 1.3-.7.3-1.6.5-2.6.5-1.4 0-2.5-.3-3.2-1-.8-.7-1.1-1.6-1.1-2.8 0-.8.1-1.6.4-2.4.3-.8.7-1.4 1.2-2 .5-.6 1.2-1 2-1.3.8-.3 1.6-.5 2.6-.5 1.4 0 2.5.3 3.2 1 .7.7 1.1 1.6 1.1 2.7zM84 57.2c.3-.4.5-.8.6-1.3.1-.5.2-1 .2-1.7 0-.6-.1-1-.4-1.3-.2-.3-.6-.5-1.2-.5-.4 0-.8.1-1.1.3-.3.2-.6.5-.9.9-.2.3-.4.8-.5 1.3-.1.5-.2 1-.2 1.6 0 .6.1 1.1.4 1.4.3.3.7.4 1.2.4.4 0 .7-.1 1-.3.4-.1.6-.4.9-.8zm16-6.5l-2.2 9.4h-3l.2-1c-.3.2-.6.4-.9.5-.3.2-.6.3-.8.4l-.9.3c-.3.1-.5.1-.8.1-.8 0-1.5-.2-2-.6-.5-.4-.7-1-.7-1.8v-.6c0-.2.1-.4.1-.6l1.4-6.1h3.1l-1.1 4.7c-.1.4-.1.7-.2.9 0 .3-.1.5-.1.7 0 .4.1.6.3.8.2.2.5.2 1 .2.2 0 .5-.1.9-.2.3-.1.7-.3 1-.5l1.5-6.7 3.2.1zm3.8 9.6c-1 0-1.8-.2-2.2-.5-.5-.3-.7-.9-.7-1.5v-.5c0-.2.1-.4.1-.6l1-4.5h-1.2l.5-2h1.2l.6-2.7h3l-.6 2.7h2.8l-.5 2H105l-.8 3.4c-.1.2-.1.5-.2.7-.1.2-.1.4-.1.6 0 .3.1.6.3.7.2.1.5.2.9.2.2 0 .4 0 .6-.1.3-.1.5-.1.6-.2h.2l-.5 2c-.3.1-.7.2-1.1.2s-.5.1-1.1.1z"/></svg>