<svg id="Layer_1" xmlns="http://www.w3.org/2000/svg" viewBox="0 0 125.4 78.4"><style>.st0{fill:#0078a9}</style><path class="st0" d="M125.4 74.2c0 2.3-1.9 4.2-4.2 4.2H4.2c-2.3 0-4.2-1.9-4.2-4.2v-70C0 1.9 1.9 0 4.2 0h117.1c2.3 0 4.2 1.9 4.2 4.2l-.1 70z"/><path d="M36.3 37.6v-1.4l-.7 1.4H30l-.7-1.5v1.4H18.8l-1.2-2.9h-2.1l-1.3 2.9H8.8v-8.9l4-9h7.7l1.1 2.6v-2.5H31l2 4.3 2.1-4.3h29.7s1.5 0 2.6.7v-.7h7.5v1s1.3-1 3.4-1h13.2l1.2 2.6v-2.6h8.5l1.5 2.6v-2.6h8v18.1h-8.3l-2-3.2v3.2H89.7l-1.4-3.3h-2.1l-1.4 3.3h-6.2s-2.3 0-4-1.3v1.3H62.1v-4.2c0-.7-.4-.5-.4-.5h-.4v4.8h-25v-.3zm-6.2 3.9h16.3l2.4 2.7 2.4-2.7h12.5s1.2 0 2.3.7v-.7h11.2c1.4 0 2.6.8 2.6.8v-.8h14.4v.7s1-.7 2.4-.7h9.4v.7s1.2-.7 2.4-.7h7.4v17s-1 1.1-2.9 1.1H103v-.5s-.9.5-2.3.5H75v-4.3c0-.4-.2-.5-.5-.5h-.3v4.9h-8v-4.9s-.9.4-2.4.4h-2.9v4.3H51l-2.3-2.7-2.4 2.8H30.1V41.5z" fill="#fff"/><path class="st0" d="M81.5 44.2h10.3V47h-7.2v2.4h7v2.4h-7v2.5h7.2V57H81.5V44.2zm30.1 5c3.8.2 4.1 2.2 4.1 4.1 0 2.4-2 3.7-4 3.7h-6.6v-2.7h5.1c.9 0 2.2 0 2.2-1.2 0-.5-.2-1-1.2-1.1-.4-.1-2-.1-2.2-.1-3.5-.1-4.2-1.8-4.2-3.9 0-2.4 1.6-3.7 3.7-3.7h6.6V47h-4.8c-1.1 0-2.3-.1-2.3 1.1 0 .8.5 1 1.3 1 .4 0 2.1.1 2.3.1zm-11.8 0c3.8.2 4.1 2.2 4.1 4.1 0 2.4-2 3.7-4 3.7h-6.6v-2.7h5.1c.9 0 2.2 0 2.2-1.2 0-.5-.2-1-1.2-1.1-.4-.1-2-.1-2.2-.1-3.5-.1-4.2-1.8-4.2-3.9 0-2.4 1.6-3.7 3.7-3.7h6.6V47h-4.8c-1.1 0-2.3-.1-2.3 1.1 0 .8.5 1 1.3 1 .3 0 2 .1 2.3.1zm-37.2-4.9h-11L48 48.2l-3.5-4H32.2v12.7h12l3.8-4.2 3.7 4.2h6v-4.3h4.2c1.6 0 4.6-.1 4.6-4.6-.1-3.1-2.3-3.7-3.9-3.7zm-20 10h-7.3v-2.5h7v-2.4h-7V47h7.6l3 3.5-3.3 3.8zm11.9 1.5L50 50.5l4.5-5v10.3zm7.1-5.8h-3.9v-3h3.9c1.3 0 1.7.9 1.7 1.4 0 .9-.5 1.6-1.7 1.6zm16.2 1.2c1.7-.9 2.2-2 2.2-3.6 0-2.7-2.2-3.4-3.8-3.4H68V57h3.2v-4.5h4.1c1.1 0 1.5 1.1 1.5 2.2l.1 2.4h3l-.1-2.6c0-2.2-.6-3.2-2-3.3zm-2.7-1.3h-3.9V47h3.9c1.3 0 1.7.9 1.7 1.4 0 .9-.4 1.5-1.7 1.5zm-5.8-27.7h3.2V35h-3.2V22.2zm-25.6 0h10.2v2.7h-7.2v2.4h7v2.5h-7v2.5h7.2v2.6H43.7V22.2zm21.8 7c1.7-.9 2.2-2 2.2-3.6 0-2.7-2.2-3.4-3.8-3.4h-8.2v12.7h3.2v-4.5H63c1.1 0 1.5 1.1 1.5 2.2l.1 2.4h3l-.1-2.6c0-2.2-.6-3.1-2-3.2zm-2.7-1.4h-3.9v-2.9h3.9c1.3 0 1.7.9 1.7 1.4 0 .9-.5 1.5-1.7 1.5zm-26.4-5.6l-3.8 8.6-3.8-8.6h-4.9v12.3l-5.4-12.3h-4.1L8.8 34.9H12l1.2-2.8h6.3l1.2 2.8H27v-9.5l4.2 9.5H34l4.2-9.4v9.4h3.2V22.2h-5zm-22.1 7.2l1.8-4.5 2 4.5h-3.8zm90.5-7.2V31l-5.3-8.8h-4.7v12l-5.3-12h-4.1L81 32.1h-2c-.8-.1-2-.7-2-2.9v-1c0-3 1.6-3.3 3.7-3.3h2v-2.8h-4.1c-1.4 0-4.6 1.1-4.7 6.3-.1 3.6 1.4 6.4 4.9 6.4h4.1l1.2-2.8h6.3l1.2 2.8h6.2v-9.4l5.7 9.4h4.2V22.2h-2.9zm-19.3 7.2l1.8-4.5 2 4.5h-3.8z"/></svg>