<?xml version="1.0" encoding="utf-8"?>
<!-- Generator: Adobe Illustrator 23.0.1, SVG Export Plug-In . SVG Version: 6.00 Build 0)  -->
<svg version="1.1" id="Layer_1" xmlns="http://www.w3.org/2000/svg" xmlns:xlink="http://www.w3.org/1999/xlink" x="0px" y="0px"
	 viewBox="0 0 436 213.2" style="enable-background:new 0 0 436 213.2;" xml:space="preserve">
<style type="text/css">
	.st0{fill:#003A63;}
	.st1{fill:#42C4DD;}
</style>
<path class="st0" d="M90.9,2.6c-4.5,0-8.5,1.9-11.2,5.1c-2.1,2.6-3.1,6.5-3.1,11.9v2h-5.7v10.6h5.7v33.3h12.1V32.2h9.5V21.6h-9.5
	v-2.4c0-5.4,1.4-6.4,4.1-6.4c1.9,0,3.9,0.6,3.9,0.7l2.5,0.8L100,4.2l-1.4-0.6C98.3,3.5,95.8,2.6,90.9,2.6z"/>
<g>
	<rect x="106.9" y="21.5" class="st0" width="12.2" height="44"/>
	<path class="st0" d="M113,3.5c-4.2,0-7.3,3-7.3,7s3.2,7,7.3,7s7.3-3,7.3-7S117.2,3.5,113,3.5z"/>
</g>
<path class="st0" d="M151.2,20.8c-3.9,0-7.5,1.3-10.3,3.6v-2.8h-12.2v44h12.2V43.4c0-5.4,1.4-11.9,8.2-11.9c4.7,0,6.3,2.4,6.3,9.7
	v24.3h12.2V39.9C167.6,27,162.2,20.8,151.2,20.8z"/>
<path class="st0" d="M193.6,20.8c-7.3,0-13.2,2.7-16,4.3L176,26l4.2,9.2l2-1.2c0.5-0.3,5.2-3.1,10.9-3.1c2.9,0,7.7,0.9,7.9,6.6
	l-8.7,0.3c-11,0.5-17.6,5.8-17.6,14.2c0,8.3,6.7,14.4,15.8,14.4c4.9,0,8.3-1.7,10.7-3.4v2.5h11.9V40.3c0-6.6-1.4-10.8-4.9-14.4
	C204.7,22.4,200,20.8,193.6,20.8z M201,52.2c-1.1,1.5-3.8,4.4-8.1,4.4c-3.8,0-6.2-1.9-6.2-4.8c0-1.1,0-4.5,7.1-4.8l7.1-0.5L201,52.2
	L201,52.2z"/>
<path class="st0" d="M244.2,20.8c-3.9,0-7.5,1.3-10.3,3.6v-2.8h-12.2v44h12.2V43.4c0-5.4,1.4-11.9,8.2-11.9c4.7,0,6.3,2.4,6.3,9.7
	v24.3h12.2V39.9C260.6,27,255.2,20.8,244.2,20.8z"/>
<path class="st0" d="M300.6,51.1c-0.2,0.2-3.8,4.3-10.5,4.3c-6.6,0-11-4.9-11-12.1c0-6.8,4.6-11.7,10.9-11.7c6.2,0,9.2,3,10.5,4.3
	l2,2l4.7-9.7l-0.8-1c-0.9-1.1-5.9-6.4-17-6.4c-10.9,0-22.5,8-22.5,22.8c0,13,9.5,22.9,22.2,22.9c11,0,15.7-4.9,17.2-6.4l1.2-1.2
	l-4.9-10L300.6,51.1z"/>
<path class="st0" d="M334.3,20.8c-12.9,0-22.3,9.6-22.3,22.7c0,13.7,8.9,23,22,23c7.7,0,14.4-2.4,18.8-6.7l1.5-1.3l-5.6-7.7l-1.6,1
	c-0.1,0.1-0.3,0.2-0.5,0.3c-1.4,1-5.5,4-11.6,4c-5.7,0-9.5-3.2-10.5-8.6h30.2l0.2-1.8c0-0.1,0.3-2.2,0.3-3.8
	C355.3,29.7,346.5,20.8,334.3,20.8z M324.7,38c0.9-3.5,3.8-7.3,9.4-7.3s8.3,4.1,9.1,7.3H324.7z"/>
<path class="st0" d="M22.8,211.6H3.1V94.4h20.3l82.6,88v-88h19.9v117.2H106l-83.2-88.3V211.6z"/>
<path class="st1" d="M427.6,25.9c-9.2,0.5-16.9,5-19.5,12.7c0,0,0-0.1-0.1-0.1l-28.9,78.1l-8.3-22.2h-21L379,173l54.4-147.2
	L427.6,25.9L427.6,25.9z"/>
<path class="st0" d="M199.9,87.6c-34.7,0-62.8,28.1-62.8,62.8s28.1,62.8,62.8,62.8s62.8-28.1,62.8-62.8S234.6,87.6,199.9,87.6z
	 M199.9,193.5c-23.8,0-43.1-19.3-43.1-43.1s19.3-43.1,43.1-43.1s43.1,19.3,43.1,43.1C243,174.2,223.7,193.5,199.9,193.5z"/>
<g>
	<polygon class="st0" points="429.6,94.4 429.5,94.4 416.8,128.7 	"/>
	<polygon class="st0" points="429.5,94.4 423,94.4 423,94.4 	"/>
	<polygon class="st0" points="384.3,158.8 379.1,172.9 379.1,173.1 	"/>
	<path class="st0" d="M423,94.4c-9.2,0.5-16.9,5-19.5,12.7V107l-19.1,51.7l-5.2,14.3l-0.1-0.1l-29.2-78.5h-11l-29.4,79.1L281,94.4
		h-21.8l42.9,117.2h15.2l26.8-75l9.6,26.4l17.6,48.6h14.8l30.8-82.9l12.7-34.3C429.6,94.4,423,94.4,423,94.4z"/>
</g>
</svg>
