<svg id="Layer_1" data-name="Layer 1" xmlns="http://www.w3.org/2000/svg" viewBox="0 0 658.88 111.68"><defs><style>.cls-1{fill:#231f20;}</style></defs><title>Giant-Corp-Logo-BLK</title><polygon class="cls-1" points="286.21 97.58 250.53 97.58 280.13 23.61 315.89 23.61 286.21 97.58"/><polygon class="cls-1" points="487.78 23.74 507.21 63.23 524.12 23.74 556.88 23.74 527.53 97.62 488.64 97.62 467.72 55.92 449.5 97.62 415.91 97.62 445.82 23.7 487.78 23.74"/><polygon class="cls-1" points="658.88 23.64 652.19 43.1 620.2 43.1 598.59 97.26 564.71 97.28 585.93 43.04 553.22 43.04 560.72 23.64 658.88 23.64"/><path class="cls-1" d="M425.69,46.73l7.64,73.77-37.1,0-1.8-8.55-39.2-.08-7.73,8.67H310.39l70.54-74ZM393.56,68.85l-20.15,23.8,21-.07Z" transform="translate(-21.63 -22.93)"/><path class="cls-1" d="M648.54,118.59a7.23,7.23,0,1,1,7.18-7.25A7.21,7.21,0,0,1,648.54,118.59Zm0,1.67a8.91,8.91,0,1,0-9-8.92A8.9,8.9,0,0,0,648.54,120.26Zm2-8.11c1.69-.1,2.64-.83,2.64-2.59a2.78,2.78,0,0,0-1.13-2.49,5.43,5.43,0,0,0-2.63-.48h-4.64v9.62h1.92v-4.06h1.86l2.16,4.06h2.13Zm-3.84-1.43V108H649c.92,0,2.31,0,2.31,1.26s-.77,1.53-1.85,1.48Z" transform="translate(-21.63 -22.93)"/><path class="cls-1" d="M199.11,73.82c8.72-12,23.09-15,37-12.34a11.71,11.71,0,0,1,8,8l38.61-.06c1.45-5.81,1-12.76-3.73-16.82-2.32-2.64-5.68-4.37-9.06-5.64-27.82-7.48-64.68-7.61-89.07,7.33-16.69,11.4-30.47,32.24-24.7,49.58,4.49,14.27,26,16.91,42.43,17.43,23.09.77,42.58-13.22,64.93-3.27,5.24-13.08,16.91-41.52,16.91-41.52H229.16l-6.25,16.06s14.24-.07,14.42,0a21.32,21.32,0,0,1-8.42,6.92c-9.18,3.31-22.15,5.35-30.91-.4a11.66,11.66,0,0,1-4.75-7.18C192.48,85.56,195.63,79,199.11,73.82Z" transform="translate(-21.63 -22.93)"/><path class="cls-1" d="M48,90.54a51,51,0,0,0,11.3-6.61s6.84-5.4,7.95-6.61c0,0,4.57-4.13,5.6-5.21,0,0,6.67-6.66,13.49-10.15a51.82,51.82,0,0,1,26.6-6.56s13.22,0,22,5.06c0,0-2.18-7.15-9.12-15.82A62.33,62.33,0,0,0,111.5,31.91,59.24,59.24,0,0,0,86,23.21a63.12,63.12,0,0,0-21.48,1.64A59.82,59.82,0,0,0,41.06,37.08,61.08,61.08,0,0,0,27.23,54.75s-4.31,8.77-5.15,17a56.57,56.57,0,0,0,.64,18.2S26.79,93,35.41,93.12A31.08,31.08,0,0,0,48,90.54Zm89.42-19.83c-19-9.72-42.12-1.19-53.34,15.66v.11a66,66,0,0,1,22.61-10c11.48-1.76,21.85,2,31.13,6.59A71.08,71.08,0,0,0,137.39,70.71ZM77.75,105.56s-24.27,10-51.77-5.13a55.11,55.11,0,0,0,32.47,30.1s18.88,8.34,39.62,1.16A56.57,56.57,0,0,0,126,112.53s5.7-5.87,9.29-16.67l.36-1.08c-2.54-4-9.85-6.14-9.85-6.14-7-1.79-13.16-3.82-27.28,6.33C98.53,95,87.09,102.74,77.75,105.56Z" transform="translate(-21.63 -22.93)"/></svg>