<svg id="Layer_1" data-name="Layer 1" xmlns="http://www.w3.org/2000/svg" viewBox="0 0 282.1 38.42"><defs><style>.cls-1{fill:#231f20;}</style></defs><title>Icebreaker-logo</title><path class="cls-1" d="M752.1,391.25a8.06,8.06,0,0,0-5.07-2.49,8.39,8.39,0,0,0-4.58,1.83l-2.2,1.94v-3.16h-5.38v25.45h5.5V401.13c0-5.65,2.32-8,5.13-8a10.75,10.75,0,0,1,4.09,1.07l2.51-3ZM726.74,402.4c.61-6.67-2.51-13.64-11.79-13.64-6.91,0-14.48,4-14.48,12.83s6.29,13.83,15.82,13.83a20.89,20.89,0,0,0,10.14-2.94l-1.59-2.5a17.51,17.51,0,0,1-8.37,2.19,10,10,0,0,1-10.32-9.77Zm-5-3.06h-15.2c.18-3.25,2.51-7.32,8.37-7.32,4.82,0,6.83,3.36,6.83,7.32ZM698,414.83l-14.33-14.57,13.21-11.51-6.43.11-12,10.79h-.92V377.42h-5.49v37.4h5.49v-13.9h.13l13.05,13.91Zm-40.3,0h6a13.19,13.19,0,0,1-1.35-6.21v-11.2c0-7.43-6.71-8.65-11.29-8.65a15.41,15.41,0,0,0-10.44,3.46l2.14,2.29a12.92,12.92,0,0,1,8-2.74c3,0,5.86,2,6.1,5.08l-7.39,1.94c-6.35,1.57-10.87,4.37-10.87,8.8,0,4.78,3.54,7.83,8.67,7.83,2.81,0,5.5-1.57,7.64-3.36l2-1.57a8,8,0,0,0,.86,4.33Zm-9-3a4.34,4.34,0,0,1-4.4-4.32c0-3.21,2.5-5.14,7.33-6.36l5.25-1.28c.73,7.94-4.27,12-8.18,12Zm-16.57-9.46c.61-6.67-2.5-13.64-11.79-13.64-6.9,0-14.47,4-14.47,12.83s6.29,13.83,15.82,13.83a20.85,20.85,0,0,0,10.13-2.94l-1.58-2.5a17.51,17.51,0,0,1-8.37,2.19,10,10,0,0,1-10.32-9.77Zm-5-3.06h-15.2c.18-3.25,2.5-7.32,8.36-7.32,4.82,0,6.84,3.36,6.84,7.32Zm-26.49-5.13,2.5-3a8,8,0,0,0-5.06-2.49,8.37,8.37,0,0,0-4.58,1.83l-2.2,1.94v-3.16h-5.38v25.45h5.5V401.13c0-5.65,2.32-8,5.13-8a10.75,10.75,0,0,1,4.09,1.07Zm-22.28,7.12c0-3.66-1.95-12.57-13.86-12.57-3.42,0-7.76,1.53-10,4.58h-.13V377.42h-5.49v37.4h5.49v-3.37h.13a12.58,12.58,0,0,0,9.4,4c9,0,14.47-6.36,14.47-14.09Zm-5.92.05c0,4.63-2,10.79-8.55,10.79-6.84,0-9.53-4.68-9.53-9.57,0-6.56,3.36-10.58,9.59-10.58,5.68,0,8.49,4.73,8.49,9.36Zm-31.59,1c.61-6.67-2.51-13.64-11.79-13.64-6.9,0-14.47,4-14.47,12.83s6.29,13.83,15.81,13.83a20.86,20.86,0,0,0,10.14-2.94l-1.59-2.5a17.44,17.44,0,0,1-8.36,2.19,10,10,0,0,1-10.33-9.77Zm-5-3.06H520.57c.19-3.25,2.51-7.32,8.37-7.32,4.82,0,6.84,3.36,6.84,7.32Zm-46.07,2.45c0-6.92,5.67-9.67,10.68-9.67a17.22,17.22,0,0,1,6.29,1.33l1.84-2.6a15.29,15.29,0,0,0-8.19-2.09c-11.48,0-16.55,6.93-16.55,13.29,0,3.5,1.83,13.37,16.31,13.37a19.27,19.27,0,0,0,9.22-2.64l-1.53-2.54a15.4,15.4,0,0,1-7.45,1.82c-7.39,0-10.62-5-10.62-10.27ZM477,379.7c0-1.27-1.28-2.7-3.48-2.7s-3.48,1.43-3.48,2.7.79,3.1,3.48,3.1,3.48-1.73,3.48-3.1Zm-.73,9.67h-5.5v25.45h5.5V389.37Z" transform="translate(-470 -377)"/></svg>