<?xml version="1.0" encoding="iso-8859-1"?>
<!-- Generator: Adobe Illustrator 22.1.0, SVG Export Plug-In . SVG Version: 6.00 Build 0)  -->
<svg version="1.1" id="Layer_1" xmlns="http://www.w3.org/2000/svg" xmlns:xlink="http://www.w3.org/1999/xlink" x="0px" y="0px"
	 viewBox="0 0 1154.689 282.847" style="enable-background:new 0 0 1154.689 282.847;" xml:space="preserve">
<g>
	<path d="M384.169,127.515c0-4.993-4.04-9.049-9.027-9.049c-5.011,0-9.043,4.056-9.043,9.049c0,4.991,4.033,9.05,9.043,9.05
		C380.128,136.565,384.169,132.506,384.169,127.515 M382.971,127.492c0,4.471-3.392,8.019-7.829,8.019
		c-4.432,0-7.849-3.548-7.849-7.997c0-4.423,3.417-7.997,7.849-7.997C379.579,119.518,382.971,123.092,382.971,127.492
		 M379.909,132.897l-3.223-4.777c1.43-0.251,2.695-1.115,2.695-2.995c0-1.941-1.068-2.993-3.506-2.993h-4.122v10.765h1.206v-4.777
		h2.283l3.181,4.777H379.909z M375.634,127.054h-2.675v-3.869h2.675c1.312,0,2.535,0.391,2.535,1.917
		C378.169,126.675,377.064,127.054,375.634,127.054 M384.169,151.66h-32.727v96.469h32.727V151.66z M342.924,151.66
		C368.83,88.299,368.978,19.5,283.918,2.949c-88.142-17.152-177.3,44.183-235.017,89.018c-29.537,22.949-37.168,35.479,8.836,16.679
		c37.157-15.188,79.827-14.359,102.839,43.014l39.258,97.155h28.349l23.476-55.541l23.659,55.541h28.356L342.924,151.66z
		 M309.206,151.66l-20.473,55.809L266.21,151.66h-28.248l-22.536,55.809c0,0-16.064-44.441-20.464-55.809
		c-4.385-11.382-32.314-87.659-126.038-59.28C126.26,50.625,210.817,3.979,277.306,23.427
		C344.297,43.018,327.237,100.176,309.206,151.66 M285.249,69.894l8.54-6.057h-10.462l-3.288-10.02l-3.207,9.938h-10.521
		l8.552,6.234l-3.295,9.947l8.471-6.197l8.5,6.197L285.249,69.894z M258.51,47.099l10.072-7.183h-12.438l-3.857-11.864L248.49,39.87
		h-12.487l10.131,7.358l-3.89,11.793l10.042-7.346l10.069,7.346L258.51,47.099z M225.115,80.646l10.12-7.18h-12.451l-3.835-11.889
		L215.1,73.43h-12.485l10.172,7.323l-3.914,11.805l10.077-7.344l10.064,7.344L225.115,80.646z M247.846,118.62H233.26l11.836,8.6
		l-4.562,13.782l11.776-8.579l11.712,8.579l-4.503-13.925l11.79-8.375h-14.521l-4.478-13.854L247.846,118.62z M142.113,70.768
		c0-3.478-2.81-6.292-6.287-6.292c-3.461,0-6.276,2.815-6.276,6.292c0,3.465,2.814,6.283,6.276,6.283
		C139.303,77.051,142.113,74.234,142.113,70.768 M32.531,151.66H0v96.456h32.531v-24.947l11.924-10.884l29.515,35.831h39.082
		l-45.957-54.995l44.455-41.46H72.98l-40.45,39.13V151.66z M119.335,248.116h32.713v-96.47h-32.713V248.116z M931.316,117.002
		h-12.735v18.931h12.735V117.002z M1154.689,241.534V155.41h-12.704v17.361h-0.351c-6.048-13.591-20.861-20.111-38.235-20.111
		c-33.782,0-48.947,21.86-48.947,45.606c0,34.974,24.823,46.703,47.55,46.703c23.086,0,34.791-11.207,39.633-20.341h0.351v16.023
		c0,21.542-13.647,32.586-37.056,32.586c-30.141,0-32.722-9.838-34.631-19.499h-11.701c1.022,9.661,5.01,29.11,45.836,29.11
		C1127.994,282.847,1154.689,274.598,1154.689,241.534 M1142.287,198.266c0,22.748-16.166,36.019-37.173,36.019
		c-21.542,0-37.883-9.817-37.883-36.019c0-22.016,14.454-34.948,36.838-34.948C1129.393,163.318,1142.287,179.522,1142.287,198.266
		 M416.699,200.197c0,28.065,18.077,47.519,50.457,47.519c32.557,0,42.885-23.088,45.314-34.788h-12.758
		c-3.265,13.952-13.774,24.133-32.557,24.133c-24.277,0-37.711-14.661-37.711-36.863c0-20.675,12.042-36.879,37.711-36.879
		c15.852,0,27.894,6.022,31.871,21.384h12.75c-2.091-12.952-13.966-32.042-44.621-32.042
		C433.228,152.66,416.699,173.316,416.699,200.197 M521.911,220.855c0,20.133,19.489,26.86,34.816,26.86
		c29.234,0,37.904-12.046,41.845-17.91h0.331c0.193,7.069,0.862,15.867,13.781,15.867c4.147,0,8.128-0.889,10.705-1.386v-8.616
		c-2.239,0.163-4.513,0.343-6.729,0.343c-5.01,0-7.078-2.57-7.078-10.003v-46.832c0-17.245-11.01-26.518-40.963-26.518
		c-30.65,0-40.831,11.519-42.72,30.292h11.692c0.874-14.294,10.501-19.634,30.678-19.634c20.999,0,29.636,4.657,29.636,17.568
		c0,8.791-3.478,10.337-31.365,11.882C546.885,193.809,521.911,196.563,521.911,220.855 M534.684,219.99
		c0-10.68,8.589-15.13,23.428-16.52c25.497-2.431,34.062-3.114,39.792-6.725v13.612c0,18.407-20.17,27.701-37.386,27.701
		C546.726,238.058,534.684,233.946,534.684,219.99 M644.557,155.41h-12.748v89.559h12.748v-50.475
		c0-20.655,13.43-31.176,31.687-31.176c17.4,0,25.489,9.657,25.489,21.042v60.609h12.746v-52.882
		c0-17.407,10.863-28.769,30.476-28.769c18.427,0,26.723,8.432,26.723,24.789v56.862h12.724v-61.154
		c0-18.409-11.726-31.154-36.858-31.154c-17.91,0-30.836,10.658-35.135,19.609c-2.568-8.951-11.883-19.609-32.042-19.609
		c-20.493,0-30.132,9.792-35.471,19.269h-0.341V155.41z M816.794,155.41h-12.756v124.37h12.756v-52.723h0.332
		c5.864,11.365,19.647,20.658,36.52,20.658c33.414,0,48.766-22.546,48.766-47.519c0-21.881-12.068-47.536-48.766-47.536
		c-24.817,0-33.053,13.063-36.52,20.656h-0.332V155.41z M816.105,200.197c0-23.429,16.359-36.879,37.541-36.879
		c26.019,0,35.995,18.93,35.995,36.879c0,22.726-15.839,36.863-35.995,36.863C827.645,237.06,816.105,218.626,816.105,200.197
		 M931.316,155.41h-12.735v89.559h12.735V155.41z M963.357,155.41h-12.739v89.559h12.739v-48.567
		c0-20.337,11.374-33.084,36.326-33.084c16.215,0,27.042,6.226,27.042,23.927v57.724h12.758v-55.472
		c0-21.341-8.936-36.837-38.766-36.837c-19.772,0-33.221,10.838-37.018,20.315h-0.341V155.41z"/>
</g>
<g>
</g>
<g>
</g>
<g>
</g>
<g>
</g>
<g>
</g>
<g>
</g>
</svg>
