<?xml version="1.0" encoding="utf-8"?>
<!-- Generator: Adobe Illustrator 22.1.0, SVG Export Plug-In . SVG Version: 6.00 Build 0)  -->
<svg version="1.1" id="HORIZONTAL" xmlns="http://www.w3.org/2000/svg" xmlns:xlink="http://www.w3.org/1999/xlink" x="0px" y="0px"
	 viewBox="0 0 215 40" style="enable-background:new 0 0 215 40;" xml:space="preserve">
<style type="text/css">
	.st0{fill:#FFFFFF;}
</style>
<g>
	<path class="st0" d="M70.3,12c-4.2,0-7.6,3.5-7.6,8s3.4,7.9,7.6,7.9c4.2,0,7.6-3.4,7.6-7.9S74.5,12,70.3,12z M70.3,24.3
		c-2,0-3.8-1.7-3.8-4.3s1.6-4.4,3.8-4.4c2,0,3.8,1.8,3.8,4.4S72.3,24.3,70.3,24.3z M94.4,17.9L94.4,17.9c-0.9-3.8-3.9-5.9-7.3-5.9
		c-4.3,0-7.8,3.6-7.8,8s3.5,7.9,7.8,7.9c3.4,0,6-1.7,7-4.3c0-0.1,0.1-0.2,0.1-0.3c0-0.3-0.3-0.6-0.6-0.6h-3c-0.2,0-0.4,0.1-0.5,0.3
		c-0.7,1.1-1.9,1.5-3.1,1.5c-1.4,0-2.5-0.6-3.3-1.6L94,18.5C94.3,18.5,94.4,18.2,94.4,17.9z M82.9,19.8c0.1-2.6,1.9-4.3,4.1-4.3
		c1.3,0,2.3,0.5,3,1.4L82.9,19.8z M101.7,27.6c-4.1,0.2-6.3-2.4-6.3-6.4v-14c0-0.3,0.3-0.6,0.6-0.6h2.7c0.3,0,0.6,0.3,0.6,0.6v14
		c0,1.9,0.8,2.7,2.3,2.8c0.3,0,0.6,0.3,0.6,0.6V27C102.3,27.3,102,27.6,101.7,27.6z M173.1,18.8V27c0,0.3-0.3,0.6-0.6,0.6h-2.7
		c-0.3,0-0.6-0.3-0.6-0.6v-8.3c0-0.9-0.3-2.9-2.9-2.9c-1.7,0-3,1.2-3,2.9V27c0,0.3-0.3,0.6-0.6,0.6h-2.7c-0.3,0-0.6-0.3-0.6-0.6
		v-8.3c0-0.9-0.3-2.9-2.8-2.9c-1.7,0-3,1.2-3,2.9V27c0,0.3-0.3,0.6-0.6,0.6h-2.7c-0.3,0-0.6-0.3-0.6-0.6v-8.2c0-3.9,2.7-6.8,6.8-6.8
		c2,0,3.8,0.9,4.8,2.1c1.2-1.4,2.9-2.1,4.8-2.1C170.6,12,173.1,14.8,173.1,18.8z M176.7,6.6c-1.1,0-1.9,0.9-1.9,1.9v1.5
		c0,0.3,0.3,0.6,0.6,0.6h2.7c0.3,0,0.6-0.3,0.6-0.6V8.6C178.6,7.5,177.7,6.6,176.7,6.6z M178.6,13.1c0-0.3-0.3-0.6-0.6-0.6h-2.7
		c-0.3,0-0.6,0.3-0.6,0.6v14c0,0.3,0.3,0.6,0.6,0.6h2.7c0.3,0,0.6-0.3,0.6-0.6V13.1z M210.9,20v6.8c0,5-3,8.2-7.9,8.2
		c-3.4,0-6.3-1.7-7.1-4.5l0,0c0-0.1,0-0.1,0-0.2c0-0.3,0.3-0.6,0.6-0.6h3.1c0.2,0,0.4,0.1,0.5,0.3l0,0c0.6,1,2,1.4,3,1.4
		c2.7,0,4-1.8,4-4.5v-0.7c-1.2,1.2-2.7,1.7-4.4,1.7c-4.1,0-7.2-3.6-7.2-7.9c0-4.4,3.2-8,7.8-8C207.7,12,210.9,15.7,210.9,20z
		 M207,20c0-2.4-1.7-4.3-3.9-4.3c-2.1,0-3.9,1.8-3.9,4.3c0,2.4,1.7,4.2,3.9,4.2C205.3,24.3,207,22.4,207,20z M132,17.9L132,17.9
		c-0.9-3.8-3.9-5.9-7.3-5.9c-4.3,0-7.8,3.6-7.8,8s3.5,7.9,7.8,7.9c3.4,0,6-1.7,7-4.3c0-0.1,0.1-0.2,0.1-0.3c0-0.3-0.3-0.6-0.6-0.6
		h-3c-0.2,0-0.4,0.1-0.5,0.3c-0.7,1.1-1.9,1.5-3.1,1.5c-1.4,0-2.5-0.6-3.3-1.6l10.2-4.3C131.9,18.5,132.1,18.2,132,17.9z
		 M120.5,19.8c0.1-2.6,1.9-4.3,4.1-4.3c1.3,0,2.3,0.5,3,1.4L120.5,19.8z M148.4,17.9L148.4,17.9c-0.9-3.8-3.9-5.9-7.3-5.9
		c-4.3,0-7.8,3.6-7.8,8s3.5,7.9,7.8,7.9c3.4,0,6-1.7,7-4.3c0-0.1,0.1-0.2,0.1-0.3c0-0.3-0.3-0.6-0.6-0.6h-3c-0.2,0-0.4,0.1-0.5,0.3
		c-0.7,1.1-1.9,1.5-3.1,1.5c-1.4,0-2.5-0.6-3.3-1.6l10.2-4.3C148.4,18.5,148.5,18.2,148.4,17.9z M136.9,19.8
		c0.1-2.6,1.9-4.3,4.1-4.3c1.3,0,2.3,0.5,3,1.4L136.9,19.8z M193.7,18.8V27c0,0.3-0.3,0.6-0.6,0.6h-2.7c-0.3,0-0.6-0.3-0.6-0.6v-8.3
		c0-0.9-0.3-2.9-2.9-2.9c-1.7,0-3,1.2-3,2.9V27c0,0.3-0.3,0.6-0.6,0.6h-2.7c-0.3,0-0.6-0.3-0.6-0.6v-8.2c0-3.9,2.7-6.8,6.8-6.8
		C191.2,12,193.7,14.8,193.7,18.8z M61,18.8V27c0,0.3-0.3,0.6-0.6,0.6h-2.7c-0.3,0-0.6-0.3-0.6-0.6v-8.3c0-0.9-0.3-2.9-2.9-2.9
		c-1.7,0-2.9,1.2-2.9,2.9V27c0,0.3-0.3,0.6-0.6,0.6h-2.7c-0.3,0-0.6-0.3-0.6-0.6v-8.2c0-3.9,2.7-6.8,6.8-6.8
		C58.5,12.1,61,14.9,61,18.8z M115.6,27.7c-4.1,0.2-6.3-2.4-6.3-6.4V7.3c0-0.3,0.3-0.6,0.6-0.6h2.7c0.3,0,0.6,0.3,0.6,0.6v14.1
		c0,1.9,0.8,2.8,2.3,2.8c0.3,0,0.6,0.3,0.6,0.6v2.4C116.2,27.4,116,27.7,115.6,27.7z"/>
	<path class="st0" d="M22.6,27.7c-0.5,0-0.8-0.4-0.8-0.8v-6.8c0-1.8-1.3-2.1-2-2.1c-1.3,0-2.1,0.9-2.1,2.1v6.8
		c0,0.5-0.4,0.8-0.8,0.8h-2.4c-0.5,0-0.8-0.4-0.8-0.8v-6.8c0-3.5,2.5-6,6-6c3.6,0,5.9,2.3,5.9,6v6.8c0,0.5-0.4,0.8-0.8,0.8H22.6z
		 M38.7,32.4c0.3-0.3,0.3-0.9-0.1-1.2c-0.2-0.1-0.3-0.2-0.5-0.2h-2.9c-0.2,0-0.4,0.1-0.6,0.2l0,0c-2.8,2.6-6.6,4.1-10.5,4.1
		c-8.5,0-15.4-6.9-15.4-15.4c0-8.6,6.9-15.5,15.5-15.5c4.1,0,7.9,1.4,10.5,4.2c2.6,2.7,4,6.5,3.9,10.5c-0.1,2.4-1.4,4.9-3.8,4.9
		h-2.2c-0.8,0-1.6-0.2-1.6-2.1V10.1c0-0.5-0.4-0.8-0.8-0.8h-2.3c-0.5,0-0.9,0.4-0.9,0.8v11.9c0,3.7,2,5.8,5.6,5.8h2.2
		c4.5,0,7.3-4.3,7.4-8.6c0.1-5.1-1.6-9.8-5-13.2c-3.3-3.4-7.9-5.2-13-5.2C13.6,0.7,5,9.3,5,19.9s8.6,19.2,19.2,19.2
		C29.8,39,35.1,36.6,38.7,32.4L38.7,32.4z"/>
</g>
</svg>
