<svg id="Layer_1" data-name="Layer 1" xmlns="http://www.w3.org/2000/svg" viewBox="0 0 434.79 152.17"><defs><style>.cls-1{fill:#231f20;}</style></defs><title>O&amp;apos;Neill-logo</title><path class="cls-1" d="M219.33,152.17c-11.49,0-17.92-.48-23.18-1.82-6.92-1.7-10.84-5.93-10.78-11.93a17.1,17.1,0,0,1,.41-3.66c.61-2.86,1.22-5.85,2.14-9.07s2.07-6.4,3.1-9.27c2.78-7.8,9.23-13,18.61-15.1,6.1-1.38,13.05-2,25-2h.47c8.11,0,19.19.43,27.6,1l1.24.08-3.15,11.06-.82-.06c-7.39-.51-19.24-1-25.94-1h-.26a143.53,143.53,0,0,0-15.09.58c-6.33.71-9,2-10.93,5.39a20.58,20.58,0,0,0-1.43,3.5h50.84l-3.26,11.34H203.08l-.12.43a21.9,21.9,0,0,0-.79,4.2l.05.25,0,.08a3.34,3.34,0,0,0,1.49,3c1.08.76,3,1.3,6,1.63a129.09,129.09,0,0,0,13.72.51h1c6.65,0,19-.59,26.82-1.14l1.42-.1-3.19,11.14-.7.05c-8.91.62-20.46,1-28.63,1h-.8m107.47,0c-11.44,0-17.85-.48-23.1-1.82-6.94-1.71-11-5.95-10.9-12a17.44,17.44,0,0,1,.41-3.65l10.16-35.42h16.51l-9.26,32.29a23.76,23.76,0,0,0-.88,4l0,0,0,.34a3.34,3.34,0,0,0,1.48,3.17c1.09.76,3,1.31,5.95,1.63a127.21,127.21,0,0,0,13.74.51h1c6.66,0,19-.59,26.83-1.14l1.42-.1L357,151.14l-.7.05c-8.93.63-20.47,1-28.64,1Zm-67.14,0,15.16-52.9h16.63l-15.17,52.9Zm-73.74-52.9H169.29l-9.91,34.58-36-34.58H107.7l-15.16,52.9h16.62l9.91-34.57,36,34.57h15.71Zm215.47,52.9c-11.44,0-17.87-.48-23.1-1.82-6.94-1.71-11-5.95-10.9-12a17.44,17.44,0,0,1,.41-3.65L378,99.27h16.51l-9.26,32.3a24.16,24.16,0,0,0-.88,4l0,0,0,.36a3.41,3.41,0,0,0,1.49,3.15c1.08.76,3,1.31,5.95,1.63a127.21,127.21,0,0,0,13.74.51h1c6.65,0,19-.59,26.82-1.14l1.43-.1-3.18,11.14-.7.05c-8.91.63-20.47,1-28.63,1ZM34,152.17c-11.48,0-17.92-.48-23.17-1.82C3.86,148.65-.06,144.42,0,138.42a17.76,17.76,0,0,1,.41-3.66c.61-2.86,1.22-5.85,2.14-9.07s2.06-6.4,3.1-9.27c2.79-7.8,9.23-13,18.61-15.1,6.1-1.38,13-2,25-2s18.55.67,23.9,2c6.89,1.72,10.79,6,10.73,12a18,18,0,0,1-.4,3.69h0c-.63,2.87-1.3,6.06-2.22,9.27s-2.05,6.21-3.06,9.07c-2.82,7.79-9.26,13-18.64,15.05-6,1.33-12.7,1.81-24.18,1.81H34ZM18.3,139.1c1.08.76,3,1.3,6,1.63a120.27,120.27,0,0,0,13,.51,129.78,129.78,0,0,0,13.29-.51c6.32-.71,9-2,10.93-5.36A23.94,23.94,0,0,0,63.18,131l3-10.49a23.8,23.8,0,0,0,.93-4.69v-.09a3.42,3.42,0,0,0-1.49-3.21c-1.08-.75-3-1.31-5.95-1.63a117.58,117.58,0,0,0-13-.56,127.66,127.66,0,0,0-13.33.56c-6.33.71-9,2-10.94,5.39a28.11,28.11,0,0,0-1.82,4.77l-3,10.51a20.14,20.14,0,0,0-.8,4.19l0,.25,0,.08a3.36,3.36,0,0,0,1.49,3m83.93-39.82H90.85l-3.15,11H99.08Z"/><path class="cls-1" d="M223.38,38.08c-.81-8.72,2.57-15.4,10.89-21.39.11-.07.2-.15.29-.22.59-.41,1.19-.82,1.83-1.22.19-.11.36-.24.55-.35.62-.39,1.28-.8,2-1.19.09-.06.17-.1.26-.17,1.64-.92,3.41-1.86,5.32-2.77l0-.19c-4.92.26-63,2.11-76.75,21.5a14.76,14.76,0,0,0-3.24,6.64c-3.07,14.64,32,28.09,63.37,33.45,12.39,2.12,29.35,4.65,45.32,6.94,7.34,1.06,14.47,2.06,20.86,2.94-1.52-.15-3.2-.26-5.07-.35-22.07-1-67.92-3.55-113.34-13.18C145.39,62.1,124.73,52.4,124.53,43,124.32,31.94,157,21.87,188.06,14.4,219.9,6.77,261.34,4,287.27,8.3c10.19,1.67,17.51,4.34,19.8,8.52,2.07,4.89-1.77,10.52-13.18,16.51l.06.12c13.21-1.1,53.82-11.55,51.93-20.07C344.22,5.86,307.21-.24,260.68,0c-17.43-.27-38.1,1.06-63,4.76-67.71,10-155.48,47-31.87,68.66,36.8,6.43,107.39,12,174.52,12.82-47.05-6.41-84.17-18.36-103.43-30.64-8-5.65-12.45-11.58-13.49-17.55"/></svg>