<?xml version="1.0" encoding="utf-8"?>
<!-- Generator: Adobe Illustrator 23.1.0, SVG Export Plug-In . SVG Version: 6.00 Build 0)  -->
<svg version="1.1" id="Layer_1" xmlns="http://www.w3.org/2000/svg" xmlns:xlink="http://www.w3.org/1999/xlink" x="0px" y="0px"
	 viewBox="0 0 87.3 42.4" style="enable-background:new 0 0 87.3 42.4;" xml:space="preserve">
<style type="text/css">
	.st0{fill:#F15B41;}
	.st1{fill:#F99D1D;}
	.st2{fill:#272560;}
	.st3{fill:#00B6BD;}
	.st4{fill:#21285E;}
	.st5{fill:#AAAAAA;}
</style>
<g>
	<path class="st0" d="M32.4,11.7l-6.9,6h-17c-1.6,0-3.1,0.6-4.3,1.6l8.6-7.5l0.1-0.1l10.7-9.5c1.7-1.5,4.2-2,6.4-1.3
		c2.2,0.7,3.9,2.5,4.4,4.7S34.2,10.2,32.4,11.7L32.4,11.7z"/>
	<ellipse class="st1" cx="8.6" cy="7" rx="6.5" ry="6.4"/>
	<path class="st2" d="M8.6,17.8c-1.6,0-3.1,0.6-4.3,1.6l-0.1,0c-2.7,2.4-2.9,6.4-0.5,9s6.5,2.8,9.2,0.5l12.6-11.1L8.6,17.8z"/>
	<path class="st3" d="M25.6,17.8L12.9,28.9c-1.2,1.1-2.8,1.6-4.4,1.6h19.5c3.8-0.1,6.4-2.8,6.4-6.4c0-3.6-2.9-6.3-6.4-6.4L25.6,17.8
		z"/>
	<path class="st4" d="M42.5,25c-0.5,0-1.1-0.2-1.4-0.6c-0.4-0.4-0.6-0.9-0.5-1.4c0-0.5,0.1-1.1,0.4-1.5c0.2-0.4,0.5-0.8,0.8-1.2
		l8-8.9h-7c-0.7,0-1.2-0.2-1.4-0.7c-0.3-0.5-0.4-1-0.4-1.5c0-0.5,0.1-1,0.4-1.4c0.3-0.4,0.8-0.6,1.3-0.6h12.4c0.5,0,1,0.2,1.4,0.5
		C56.8,8.2,57,8.7,57,9.3c0,0.5-0.1,1-0.3,1.4c-0.2,0.4-0.5,0.7-0.8,1l-8.4,9.2h7.9c0.5,0,0.9,0.2,1.2,0.6c0.3,0.4,0.5,0.9,0.4,1.4
		c0,0.5-0.1,1.1-0.4,1.5C56.5,24.8,56,25,55.4,25L42.5,25z M62,25.3c-2.2,0-2.7-1.1-2.7-2V9.7C59.3,9,59.5,8.4,60,8
		c0.4-0.4,1.1-0.6,2-0.6c0.8,0,1.4,0.2,1.8,0.5c0.4,0.3,0.7,0.9,0.7,1.6v13.7c0,0.7-0.2,1.3-0.7,1.6C63.3,25.1,62.7,25.3,62,25.3z
		 M62,5.9c-0.9,0-1.6-0.2-2.1-0.7s-0.8-1.2-0.8-2c0-0.7,0.3-1.4,0.8-1.9c0.5-0.5,1.2-0.8,2.1-0.8c0.7,0,1.4,0.2,2,0.7
		c0.6,0.4,0.9,1.1,0.9,2.1c0,0.8-0.3,1.5-0.8,2C63.5,5.7,62.8,5.9,62,5.9L62,5.9z M70.3,30.5c-2.1,0-2.5-1.1-2.5-2.1V9.2
		c0-0.6,0.2-1.2,0.7-1.6c0.4-0.4,1.1-0.6,2-0.6c0.6,0,1.1,0.1,1.7,0.4C72.7,7.6,73,8.2,73,9c0.1-0.1,0.2-0.3,0.4-0.4
		c0.3-0.3,0.7-0.7,1.2-0.9c1-0.6,2.2-1,3.4-0.9c1.2,0,2.3,0.2,3.4,0.7c1,0.5,1.8,1.1,2.4,2c0.7,0.9,1.2,1.9,1.4,3
		c0.3,1.2,0.5,2.5,0.5,3.7c0,1.3-0.2,2.6-0.5,3.8c-0.3,1.1-0.9,2.1-1.6,3c-0.7,0.8-1.6,1.5-2.6,2c-1.1,0.5-2.3,0.7-3.5,0.7
		c-0.8,0-1.6-0.1-2.4-0.3c-0.5-0.2-1.1-0.4-1.5-0.8c-0.3-0.2-0.5-0.4-0.7-0.6v4.4c0,0.8-0.2,1.3-0.6,1.7
		C71.8,30.3,71.2,30.5,70.3,30.5z M76.6,11.1c-0.6,0-1.1,0.1-1.6,0.4c-0.5,0.3-0.9,0.6-1.2,1.1c-0.3,0.5-0.6,1-0.7,1.6
		c-0.2,0.7-0.3,1.4-0.3,2.1c0,1.6,0.3,2.9,1,3.8c0.7,0.9,1.6,1.4,2.8,1.4s2.1-0.5,2.8-1.4c0.6-1,1-2.2,1-3.7c0-0.7-0.1-1.4-0.3-2.1
		c-0.1-0.6-0.4-1.1-0.7-1.6c-0.3-0.4-0.7-0.8-1.2-1.1C77.7,11.2,77.1,11.1,76.6,11.1z"/>
</g>
<g>
	<path class="st5" d="M5.1,37.3v2.8H4.1V33h2.6c0.8,0,1.4,0.2,1.8,0.6s0.7,0.9,0.7,1.6c0,0.7-0.2,1.2-0.6,1.6
		c-0.4,0.4-1,0.6-1.9,0.6H5.1z M5.1,36.5h1.7c0.5,0,0.9-0.1,1.2-0.4s0.4-0.6,0.4-1c0-0.4-0.1-0.8-0.4-1c-0.3-0.3-0.6-0.4-1.1-0.4
		H5.1V36.5z"/>
	<path class="st5" d="M12.9,35.6c-0.1,0-0.3,0-0.4,0c-0.6,0-1,0.3-1.2,0.8v3.8h-0.9v-5.3h0.9l0,0.6c0.3-0.5,0.7-0.7,1.3-0.7
		c0.2,0,0.3,0,0.4,0.1V35.6z"/>
	<path class="st5" d="M15.8,40.2c-0.7,0-1.3-0.2-1.7-0.7c-0.4-0.5-0.7-1.1-0.7-1.9v-0.2c0-0.5,0.1-1,0.3-1.4c0.2-0.4,0.5-0.7,0.8-1
		c0.4-0.2,0.7-0.3,1.2-0.3c0.7,0,1.2,0.2,1.6,0.7s0.6,1.1,0.6,1.9v0.4h-3.6c0,0.5,0.2,0.9,0.5,1.3c0.3,0.3,0.7,0.5,1.1,0.5
		c0.3,0,0.6-0.1,0.8-0.2s0.4-0.3,0.6-0.5l0.6,0.4C17.3,39.9,16.7,40.2,15.8,40.2z M15.7,35.5c-0.4,0-0.7,0.1-0.9,0.4
		c-0.2,0.3-0.4,0.6-0.5,1.1h2.6v-0.1c0-0.5-0.1-0.8-0.4-1.1C16.3,35.6,16,35.5,15.7,35.5z"/>
	<path class="st5" d="M20.6,38.9l1.3-4.1h0.9l-1.9,5.3h-0.7l-1.9-5.3h0.9L20.6,38.9z"/>
	<path class="st5" d="M23.7,33.4c0-0.1,0-0.3,0.1-0.4s0.2-0.2,0.4-0.2s0.3,0.1,0.4,0.2s0.1,0.2,0.1,0.4s0,0.3-0.1,0.4
		s-0.2,0.1-0.4,0.1s-0.3,0-0.4-0.1S23.7,33.6,23.7,33.4z M24.7,40.1h-0.9v-5.3h0.9V40.1z"/>
	<path class="st5" d="M25.9,37.4c0-0.5,0.1-1,0.3-1.4s0.5-0.7,0.8-1s0.8-0.3,1.2-0.3c0.7,0,1.3,0.2,1.7,0.7s0.7,1.2,0.7,2v0.1
		c0,0.5-0.1,1-0.3,1.4c-0.2,0.4-0.5,0.7-0.8,1s-0.8,0.3-1.3,0.3c-0.7,0-1.3-0.2-1.7-0.7S25.9,38.3,25.9,37.4L25.9,37.4z M26.8,37.5
		c0,0.6,0.1,1.1,0.4,1.4s0.6,0.5,1.1,0.5c0.5,0,0.8-0.2,1.1-0.5c0.3-0.4,0.4-0.9,0.4-1.5c0-0.6-0.1-1-0.4-1.4
		c-0.3-0.4-0.6-0.5-1.1-0.5c-0.4,0-0.8,0.2-1.1,0.5S26.8,36.8,26.8,37.5z"/>
	<path class="st5" d="M35.1,39.6c-0.4,0.4-0.9,0.6-1.5,0.6c-0.6,0-1-0.2-1.3-0.5c-0.3-0.3-0.4-0.8-0.4-1.5v-3.4h0.9v3.4
		c0,0.8,0.3,1.2,1,1.2c0.7,0,1.1-0.3,1.4-0.8v-3.8h0.9v5.3h-0.9L35.1,39.6z"/>
	<path class="st5" d="M40.4,38.7c0-0.2-0.1-0.4-0.3-0.6c-0.2-0.1-0.5-0.3-1-0.3c-0.5-0.1-0.8-0.2-1.1-0.4c-0.3-0.1-0.5-0.3-0.6-0.5
		c-0.1-0.2-0.2-0.4-0.2-0.7c0-0.4,0.2-0.8,0.5-1.1c0.4-0.3,0.8-0.4,1.4-0.4c0.6,0,1.1,0.2,1.5,0.5c0.4,0.3,0.6,0.7,0.6,1.2h-0.9
		c0-0.2-0.1-0.5-0.3-0.6c-0.2-0.2-0.5-0.3-0.8-0.3c-0.3,0-0.6,0.1-0.8,0.2s-0.3,0.3-0.3,0.6c0,0.2,0.1,0.4,0.3,0.5s0.5,0.2,0.9,0.3
		c0.5,0.1,0.8,0.2,1.1,0.4s0.5,0.3,0.6,0.5c0.1,0.2,0.2,0.4,0.2,0.7c0,0.5-0.2,0.9-0.6,1.1c-0.4,0.3-0.9,0.4-1.5,0.4
		c-0.4,0-0.8-0.1-1.1-0.2s-0.6-0.4-0.8-0.6c-0.2-0.3-0.3-0.6-0.3-0.9H38c0,0.3,0.1,0.5,0.4,0.7c0.2,0.2,0.5,0.3,0.9,0.3
		c0.3,0,0.6-0.1,0.8-0.2C40.3,39.1,40.4,38.9,40.4,38.7z"/>
	<path class="st5" d="M43.4,40.1h-0.9v-7.5h0.9V40.1z"/>
	<path class="st5" d="M46.6,38.8l1.2-4h1l-2.1,6.1c-0.3,0.9-0.9,1.3-1.6,1.3l-0.2,0l-0.3-0.1v-0.7l0.2,0c0.3,0,0.5-0.1,0.7-0.2
		c0.2-0.1,0.3-0.3,0.4-0.7l0.2-0.5l-1.9-5.2h1L46.6,38.8z"/>
	<path class="st5" d="M53.2,37.3v2.8h-0.9V33h2.6c0.8,0,1.4,0.2,1.8,0.6c0.4,0.4,0.7,0.9,0.7,1.6c0,0.7-0.2,1.2-0.6,1.6
		c-0.4,0.4-1,0.6-1.9,0.6H53.2z M53.2,36.5h1.7c0.5,0,0.9-0.1,1.2-0.4s0.4-0.6,0.4-1c0-0.4-0.1-0.8-0.4-1c-0.3-0.3-0.6-0.4-1.1-0.4
		h-1.7V36.5z"/>
	<path class="st5" d="M61.6,40.1c-0.1-0.1-0.1-0.3-0.1-0.6c-0.4,0.4-0.9,0.7-1.5,0.7c-0.5,0-0.9-0.1-1.3-0.4
		c-0.3-0.3-0.5-0.7-0.5-1.1c0-0.5,0.2-1,0.6-1.3c0.4-0.3,1-0.5,1.8-0.5h0.9v-0.4c0-0.3-0.1-0.6-0.3-0.8c-0.2-0.2-0.5-0.3-0.8-0.3
		c-0.3,0-0.6,0.1-0.8,0.2s-0.3,0.4-0.3,0.6h-0.9c0-0.3,0.1-0.5,0.3-0.8c0.2-0.2,0.4-0.4,0.8-0.6c0.3-0.1,0.7-0.2,1.1-0.2
		c0.6,0,1.1,0.2,1.4,0.5c0.3,0.3,0.5,0.7,0.5,1.3v2.4c0,0.5,0.1,0.9,0.2,1.2v0.1H61.6z M60.1,39.4c0.3,0,0.6-0.1,0.8-0.2
		s0.4-0.3,0.6-0.6v-1.1h-0.7c-1.1,0-1.7,0.3-1.7,1c0,0.3,0.1,0.5,0.3,0.7S59.8,39.4,60.1,39.4z"/>
	<path class="st5" d="M66.4,35.6c-0.1,0-0.3,0-0.4,0c-0.6,0-1,0.3-1.2,0.8v3.8h-0.9v-5.3h0.9l0,0.6c0.3-0.5,0.7-0.7,1.3-0.7
		c0.2,0,0.3,0,0.4,0.1V35.6z"/>
	<path class="st5" d="M68.6,33.5v1.3h1v0.7h-1v3.3c0,0.2,0,0.4,0.1,0.5c0.1,0.1,0.2,0.2,0.4,0.2c0.1,0,0.2,0,0.4-0.1v0.7
		c-0.2,0.1-0.5,0.1-0.7,0.1c-0.4,0-0.7-0.1-0.9-0.4s-0.3-0.6-0.3-1v-3.3h-1v-0.7h1v-1.3H68.6z"/>
	<path class="st5" d="M75.2,37.5c0,0.8-0.2,1.5-0.6,1.9s-0.9,0.7-1.5,0.7c-0.6,0-1.1-0.2-1.5-0.6v2.5h-0.9v-7.3h0.8l0,0.6
		c0.4-0.5,0.9-0.7,1.5-0.7c0.6,0,1.1,0.2,1.5,0.7C75,35.9,75.2,36.6,75.2,37.5L75.2,37.5z M74.3,37.4c0-0.6-0.1-1.1-0.4-1.4
		s-0.6-0.5-1-0.5c-0.5,0-1,0.2-1.2,0.7v2.5c0.3,0.5,0.7,0.7,1.2,0.7c0.4,0,0.8-0.2,1-0.5C74.1,38.6,74.3,38.1,74.3,37.4z"/>
	<path class="st5" d="M79.6,40.1c-0.1-0.1-0.1-0.3-0.1-0.6c-0.4,0.4-0.9,0.7-1.5,0.7c-0.5,0-0.9-0.1-1.3-0.4
		c-0.3-0.3-0.5-0.7-0.5-1.1c0-0.5,0.2-1,0.6-1.3c0.4-0.3,1-0.5,1.8-0.5h0.9v-0.4c0-0.3-0.1-0.6-0.3-0.8c-0.2-0.2-0.5-0.3-0.8-0.3
		c-0.3,0-0.6,0.1-0.8,0.2s-0.3,0.4-0.3,0.6h-0.9c0-0.3,0.1-0.5,0.3-0.8c0.2-0.2,0.4-0.4,0.8-0.6c0.3-0.1,0.7-0.2,1.1-0.2
		c0.6,0,1.1,0.2,1.4,0.5c0.3,0.3,0.5,0.7,0.5,1.3v2.4c0,0.5,0.1,0.9,0.2,1.2v0.1H79.6z M78.1,39.4c0.3,0,0.6-0.1,0.8-0.2
		s0.4-0.3,0.6-0.6v-1.1h-0.7c-1.1,0-1.7,0.3-1.7,1c0,0.3,0.1,0.5,0.3,0.7S77.8,39.4,78.1,39.4z"/>
	<path class="st5" d="M83.4,38.8l1.2-4h1l-2.1,6.1c-0.3,0.9-0.9,1.3-1.6,1.3l-0.2,0l-0.3-0.1v-0.7l0.2,0c0.3,0,0.5-0.1,0.7-0.2
		c0.2-0.1,0.3-0.3,0.4-0.7L83,40l-1.9-5.2h1L83.4,38.8z"/>
</g>
</svg>
