<svg id="Layer_1" data-name="Layer 1" xmlns="http://www.w3.org/2000/svg" viewBox="0 0 305.54 56.69"><title>Quiksilver-logo</title><path d="M58.46,55.23a1.4,1.4,0,0,1-1.36,1.46L1.35,56.63A1.41,1.41,0,0,1,0,55.17L.06,1.47A1.41,1.41,0,0,1,1.42,0L57.16.06a1.42,1.42,0,0,1,1.36,1.47ZM54.61,42l-3.42-3.47H27.55c-6.68,0-10.74-4.22-10.73-10.22,0-7.44,6.6-10.28,10-10.28a12.81,12.81,0,0,1,5.08,1l-3.91-4a10.8,10.8,0,0,0-7.21.65c-4.58,2-8.15,8-12.44,11.12a8.44,8.44,0,0,1-4.59,1.5l0,10.93A2.84,2.84,0,0,0,6.55,42l48.06,0M34.94,22.13a3.06,3.06,0,0,0-4.32,0c-.49.49-10.41,10.73-10.41,10.73,1,2.36,4.34,3.57,6.84,3.57h22Zm-2.82,1.7a1.06,1.06,0,0,1,1.38,0l4.68,4.69c.28.28.13.54-.08.55H35.51l-2,1.89c-.27.34-.72.34-.71-.17V27.53c0-.43-.38-.51-.78-.1l-1.91,1.64H27.41c-.32,0-.46-.27-.21-.52Z"/><path d="M95.41,38.21l2.22,2.87-5.09,3.34-2-2.79a12.42,12.42,0,0,1-4.28.77c-7.38,0-12.55-4.93-12.55-14S79,14.35,86.36,14.35s12.55,4.93,12.55,14A14.71,14.71,0,0,1,95.41,38.21Zm-9.13-17.3c-3,0-4.74,2.53-4.74,7.42,0,5.13,1.71,7.89,4.82,7.89h.35l-2.33-3.06,5-3.27,1.67,2.41a18.4,18.4,0,0,0,.35-3.89C91.41,23.52,89.31,20.91,86.28,20.91Z"/><path d="M114.42,42.4c-6.84,0-11.85-3.42-11.85-12V14.77h7.69V30.36c0,3.34,1.32,5.4,4.28,5.4s4.19-2.06,4.19-5.4V14.77h7.7V30.36C126.43,39,121.26,42.4,114.42,42.4Z"/><path d="M131.4,42V14.77h7.7V42Z"/><path d="M160.39,42,154.72,30.4l-2.8,3.38V42h-7.69V14.77h7.69V18c0,2.29,0,4.74-.11,6.72,1.12-1.78,3.49-4.93,5.24-7.15l2.18-2.76h9.17l-8.2,9.6L169.33,42Z"/><path d="M181.14,42.4a21.64,21.64,0,0,1-11.46-3.3l3.65-5.91a16.41,16.41,0,0,0,8,2.72c2.68,0,3.54-.46,3.54-1.75,0-1-1-1.63-4.63-2.48-6.57-1.52-9.72-3.31-9.72-8.75,0-5.13,4.16-8.58,10.73-8.58a17.86,17.86,0,0,1,10.84,3.14l-3.65,5.91a13.19,13.19,0,0,0-7.58-2.56c-2.25,0-2.8.7-2.8,1.67s1,1.47,4.47,2.29c6.84,1.63,9.87,3.73,9.87,8.82C192.37,39.84,187.67,42.4,181.14,42.4Z"/><path d="M196.73,42V14.77h7.69V42Z"/><path d="M209.55,42V14.77h7.62V35.41h12.05V42Z"/><path d="M244.22,42H236.6l-9.37-27.21h8.48l2,7.31c.93,3.38,2.25,8.9,2.76,11.5.5-2.6,1.82-8.08,2.75-11.5l2-7.31h8.39Z"/><path d="M256.89,42V14.77h20.83v6.34H264.35v3.61h8V31h-8v4.66H278V42Z"/><path d="M297.11,42l-4.43-9.17h-3V42h-7.42V14.77h12.16c6.37,0,10.61,2.41,10.61,8.86,0,4.08-1.9,6.61-4.9,8L305.54,42Zm-2.92-21.07h-4.54v5.95h4.43c2.45,0,3.42-1.09,3.42-3C297.5,22.12,296.57,20.91,294.19,20.91Z"/></svg>