<?xml version="1.0" encoding="utf-8"?>
<!-- Generator: Adobe Illustrator 22.1.0, SVG Export Plug-In . SVG Version: 6.00 Build 0)  -->
<svg version="1.1" id="Layer_1" xmlns="http://www.w3.org/2000/svg" xmlns:xlink="http://www.w3.org/1999/xlink" x="0px" y="0px"
	 viewBox="0 0 291 123.3" style="enable-background:new 0 0 291 123.3;" xml:space="preserve">
<style type="text/css">
	.st0{fill-rule:evenodd;clip-rule:evenodd;}
</style>
<g>
	<path class="st0" d="M188,54.1v11.6h-16.1V54c0-3.2,2.5-4.5,3.4-4.5h8.5C185.8,49.5,188,51.4,188,54.1L188,54.1z M260.4,49.4h5.9
		c2.3,0,4.3,1.8,4.3,4.2v17c0,2.3-1.9,4.2-4.2,4.2h-5.9c-2.3,0-4.2-1.9-4.2-4.2V53.6C256.2,51.3,258.1,49.4,260.4,49.4L260.4,49.4z
		 M161.2,53.5v27.2h10.2v-8.1h16.4v8.1h10.5V53.7c-0.1-6.8-4-10.5-9.4-10.5h-19.4C164.1,43.2,161.2,48,161.2,53.5L161.2,53.5z
		 M281,71.9v-20c0-4.8-3.9-8.7-8.7-8.7h0h-17.7c-4.8,0-8.8,3.9-8.8,8.7V72c0,4.8,3.9,8.7,8.8,8.7l0,0h17.6
		C277.1,80.7,281,76.7,281,71.9L281,71.9z M8.2,65.8c0.1,0,0.3,0,0.5,0h14c2.2,0,3.7,1.9,4,3.7c0.4,2.5-0.9,4.9-4.1,4.9H1.1v6.3h22
		c1.9,0,4,0,4.9,0c0.7,0,2.1-0.4,3-0.7c3.5-1.6,4.9-5.3,5-8.6c0-1.1,0-2,0-3.1c-0.1-7.6-2.2-10.6-10.5-10.6H13.5
		c-3-0.1-3.8-2.6-3.7-4.6c0.1-4,3.4-3.5,6.7-3.5H35v-6.3H8c-0.7,0-2,0.2-2.7,0.4C1.7,44.9,0.2,49,0,53.7
		C-0.2,59.4,1.9,65.6,8.2,65.8L8.2,65.8z M229.2,55.8v24.9h10.6V53.5c0-6.4-3.7-10.4-10.2-10.4h-25v37.6h10.2V49.5h10
		C228.5,49.5,229.2,52.9,229.2,55.8L229.2,55.8z M139.8,49.3c2.3,0.4,4.8,0.7,4.8,5.2v26.2H155V55c-0.1-5.5,0.2-11.4-8.6-11.8h-40.1
		v37.5h10.4V49.4h8.8v31.4h10.1V49.3H139.8L139.8,49.3z M87,43.2v37.6h11V43.2H87L87,43.2z M52.8,43.2H42.5v37.6h10.3v-8.4h15.5v8.3
		h10.3V43.1H68.3v22.1H52.8V43.2L52.8,43.2z"/>
	<path class="st0" d="M287.1,50.7c-1.7,0-3.1-1.4-3.1-3.1c0-1.7,1.4-3.1,3.1-3.1c1.7,0,3.1,1.4,3.1,3.1
		C290.3,49.2,288.9,50.7,287.1,50.7L287.1,50.7z M286.2,47.3v-1.2h1.1c0.5,0,0.6,0.3,0.6,0.6c0,0.4-0.2,0.6-0.7,0.6H286.2
		L286.2,47.3z M287.1,51.1c2,0,3.6-1.6,3.6-3.6c0-2-1.6-3.6-3.6-3.6c-2,0-3.6,1.6-3.6,3.6C283.5,49.5,285.1,51.1,287.1,51.1
		L287.1,51.1z M285.3,49.7h0.9V48h0.9c0.7,0,0.7,0.2,0.7,0.8c0,0.5,0,0.7,0.1,0.9h1v-0.1c-0.2-0.1-0.2-0.2-0.2-0.9
		c0-0.8-0.2-1-0.6-1.1c0.4-0.1,0.7-0.6,0.7-1c0-0.4-0.2-1.2-1.4-1.2h-2.2V49.7L285.3,49.7z"/>
</g>
</svg>
