<?xml version="1.0" encoding="utf-8"?>
<!-- Generator: Adobe Illustrator 23.0.2, SVG Export Plug-In . SVG Version: 6.00 Build 0)  -->
<svg version="1.1" id="Layer_1" xmlns="http://www.w3.org/2000/svg" xmlns:xlink="http://www.w3.org/1999/xlink" x="0px" y="0px"
	 viewBox="0 0 327.6 367.4" style="enable-background:new 0 0 327.6 367.4;" xml:space="preserve">
<style type="text/css">
	.st0{fill:#FFFFFF;}
	.st1{fill:#1D1D1B;}
	.st2{fill:#E20512;}
</style>
<path class="st0" d="M310,79L181.3,4.7c-10.9-6.2-24.2-6.2-35.1,0L17.5,79C6.7,85.3,0,96.8,0,109.4V258c0,12.5,6.7,24.1,17.5,30.4
	l128.7,74.3c10.9,6.3,24.2,6.3,35.1,0L310,288.4c10.8-6.3,17.5-17.8,17.6-30.4V109.4C327.5,96.8,320.8,85.3,310,79z"/>
<path class="st1" d="M163.8,360.4c-4.9,0-9.7-1.3-14-3.7L21,282.3c-8.7-5-14-14.3-14-24.3V109.4c0-10,5.3-19.3,14-24.3l128.8-74.3
	c8.7-5,19.4-5,28.1,0l128.7,74.3c8.7,5,14,14.3,14,24.3V258c0,10-5.3,19.3-14,24.3l-128.7,74.3C173.5,359.1,168.7,360.4,163.8,360.4
	z M163.8,17.1c-3.1,0-6.2,0.8-8.9,2.4L26.1,93.8c-5.5,3.2-9,9.1-9,15.5V258c0,6.4,3.5,12.3,9,15.5l128.7,74.3
	c5.5,3.2,12.4,3.2,17.9,0l128.7-74.3c5.5-3.2,9-9.1,9-15.5V109.4c0-6.4-3.5-12.3-9-15.5L172.7,19.5C170,18,166.9,17.1,163.8,17.1
	L163.8,17.1z"/>
<path class="st2" d="M247.7,140.5c2.6-6.4,7.8-13.7,12-19.2l-8.9,1.7c-4.2,5.3-8.8,11.8-11.4,17.5H247.7z M260.2,120.7l4.4-5.4
	h-26.6l3.6,5.4H260.2z"/>
<path class="st1" d="M239.3,125.2c0-7-4.8-10.7-13.5-10.7s-13.5,3.7-13.5,10.7s4.8,10.6,13.5,10.6S239.3,132.2,239.3,125.2
	 M211.2,135.1v-27.4c-2.2,1.5-4.6,2.7-7.1,3.6v5c-2.3-1-4.8-1.5-7.2-1.4c-7.1,0-11.2,4.6-11.2,10.3c0,6.8,4.4,10.7,11.3,10.7
	c2.6,0.1,5.2-0.6,7.4-2v1.3L211.2,135.1z M184.6,127.1v-0.6c0-8.2-4.6-11.9-12.9-11.9c-8,0-12.8,3.6-12.8,10.6
	c0,7.3,5.1,11.2,13.8,11.2c3.8,0,7.6-0.9,10.9-2.8l-2.2-4.9c-2.6,1.4-5.5,2.1-8.5,2.2c-3.9,0-6.4-1.4-6.8-3.9H184.6z M157.8,125.6
	c0-6.8-4.4-10.7-11.3-10.7c-2.6-0.1-5.2,0.6-7.4,2v-1.5h-6.8v27c2.2-1.1,4.6-1.9,7-2.3v-5.7c2.3,1,4.8,1.5,7.3,1.5
	C153.6,135.9,157.8,131.2,157.8,125.6L157.8,125.6z M111.8,125.2c0-7-4.8-10.7-13.5-10.7c-7.4,0-13.5,3.7-13.5,10.7
	c0,7,4.8,10.6,13.5,10.6S111.8,132.2,111.8,125.2L111.8,125.2z M65.6,113.6h7.6v21.5h8v-21.5h7.6l1.9-5.8H63.5L65.6,113.6z
	 M104.8,125.2c0,3.7-3.1,5.1-6.5,5.1s-6.5-1.4-6.5-5.1s3.1-5.1,6.5-5.1S104.8,121.5,104.8,125.2z M120,117.8v-2.4h-7v19.7h7v-6.6
	c0-5.7,5.4-8.1,10.4-7.1V115C127.3,114.4,122,115.1,120,117.8z M151,125.2c0,6-7.7,5.3-11.6,4V122C142.2,119.1,151,119.5,151,125.2z
	 M177.3,123h-11.2c0.4-2.2,2-4,5.6-4S176.9,120.8,177.3,123z M204.2,128.6c-3.8,2.5-11.6,2.5-11.6-3.4s8-6.1,11.6-3.2V128.6z
	 M232.3,125.2c0,3.7-3.1,5.1-6.5,5.1s-6.5-1.4-6.5-5.1s3.1-5.1,6.5-5.1S232.3,121.5,232.3,125.2L232.3,125.2z"/>
<path class="st1" d="M94,172.5c1.7-8.1,0.7-10.5-2.9-10.5c-5.7,0-7.4,5.2-11.5,24.4s-4.6,24.4,1.1,24.4c4.6,0,6.4-4,9.3-17.5h18
	l-1.1,5.3c-4.3,19.9-17,24.7-28.8,24.7c-20.8,0-23.2-10.5-17.6-37c5.8-27.2,14.1-37,33.3-37c16.8,0,21.2,8.8,18.3,22.6l-1,4.5h-18
	L94,172.5z"/>
<path class="st1" d="M123.8,150.9h18.6l-12,56.1h22.8l-3.1,15.2h-41.4L123.8,150.9z"/>
<path class="st1" d="M187.7,150.9l-11,51.4c-1.4,6.9,0.3,8.7,3.8,8.7s6-1.8,7.4-8.7l11-51.4h18.6l-10,46.7
	c-4.2,19.9-14.1,25.9-29.6,25.9s-22.8-6-18.6-25.9l10-46.7H187.7z"/>
<path class="st1" d="M226,150.9h28c13.3,0,18,7.1,15.7,17.8c-1.6,7.6-6.4,14.4-14.6,16l-0.1,0.2c9.3,0.9,11.4,8.9,9.8,16.3
	c-2.7,12.4-10.5,21.1-25.9,21.1h-28L226,150.9z M232.2,208.7h5.2c3.4,0,7.3-3,8.5-8.8c1.2-5.5-1.4-8.6-4.8-8.6h-5.2L232.2,208.7z
	 M238.6,178.8h4.5c3.8,0,6.6-3.4,7.5-7.2c0.8-4-0.6-7.4-4.4-7.4h-4.5L238.6,178.8z"/>
<path class="st1" d="M133.1,265.9v1.2h-8.7v-12.4h8.5v1.3h-7.1v4h5.7v1.2h-5.7v4.6L133.1,265.9z"/>
<path class="st1" d="M141.6,262.7c-0.3-0.3-0.6-0.6-1-0.7c-0.4-0.2-0.9-0.3-1.3-0.5c-0.5-0.1-1-0.3-1.4-0.5
	c-0.5-0.2-0.9-0.4-1.3-0.6c-0.4-0.2-0.8-0.6-1-1c-0.3-0.5-0.4-1-0.4-1.5c0-0.9,0.4-1.8,1.1-2.4c0.8-0.7,1.8-1,2.9-1
	c0.4,0,0.9,0.1,1.3,0.2c0.3,0.1,0.7,0.2,1,0.4c0.3,0.1,0.5,0.3,0.7,0.5c0.2,0.1,0.3,0.2,0.4,0.4l0.1,0.2L142,257l-0.1-0.1
	c-0.1-0.1-0.2-0.2-0.3-0.3c-0.2-0.1-0.4-0.3-0.6-0.4c-0.2-0.1-0.5-0.2-0.8-0.3c-0.3-0.1-0.7-0.1-1-0.1c-0.7,0-1.4,0.2-1.9,0.6
	c-0.5,0.4-0.7,0.9-0.7,1.5c0,0.4,0.1,0.8,0.4,1.1c0.3,0.3,0.6,0.5,1,0.7c0.4,0.2,0.9,0.3,1.3,0.5c0.5,0.1,0.9,0.3,1.4,0.5
	c0.5,0.2,0.9,0.3,1.3,0.6c0.4,0.2,0.8,0.6,1,1c0.3,0.5,0.4,1,0.4,1.5c0,1-0.4,1.9-1.1,2.5c-0.9,0.7-2,1.1-3.1,1
	c-0.5,0-1-0.1-1.5-0.2c-0.4-0.1-0.8-0.3-1.2-0.5c-0.3-0.2-0.6-0.3-0.8-0.5c-0.2-0.1-0.3-0.3-0.5-0.5l-0.2-0.2l0.8-0.9
	c0,0.1,0.1,0.1,0.1,0.2c0.1,0.1,0.3,0.3,0.4,0.4c0.2,0.2,0.4,0.3,0.6,0.5c0.3,0.2,0.6,0.3,0.9,0.4c0.4,0.1,0.8,0.2,1.2,0.2
	c0.8,0,1.5-0.2,2.1-0.6c0.5-0.4,0.8-1,0.7-1.7C142.1,263.4,141.9,263,141.6,262.7z"/>
<path class="st1" d="M153.6,254.7v1.3h-3.9v11.1h-1.3V256h-3.9v-1.2L153.6,254.7z"/>
<path class="st1" d="M154.1,265.8c0.2-0.2,0.4-0.3,0.6-0.3c0.5,0,0.9,0.3,0.9,0.8c0,0,0,0.1,0,0.1c0,0.2-0.1,0.5-0.2,0.6
	c-0.2,0.2-0.4,0.3-0.6,0.2c-0.2,0-0.5-0.1-0.6-0.2c-0.2-0.2-0.2-0.4-0.2-0.6C153.9,266.2,154,265.9,154.1,265.8z"/>
<path class="st1" d="M160.7,267.1c0-0.7,0.1-1.4,0.3-2.1c0.2-0.6,0.5-1.1,0.9-1.6c0.4-0.4,0.8-0.8,1.2-1.1c0.4-0.3,0.9-0.6,1.3-0.9
	s0.8-0.6,1.2-0.8c0.4-0.3,0.7-0.6,0.9-1c0.2-0.4,0.3-0.8,0.3-1.2c0-0.6-0.2-1.1-0.6-1.5c-0.5-0.4-1-0.6-1.6-0.5
	c-0.3,0-0.6,0.1-0.9,0.2c-0.3,0.1-0.5,0.2-0.7,0.4c-0.2,0.2-0.3,0.3-0.4,0.5c-0.1,0.1-0.2,0.3-0.3,0.5l-0.1,0.2l-1.6-0.7
	c0-0.1,0.1-0.2,0.1-0.3c0.1-0.2,0.2-0.5,0.4-0.7c0.2-0.3,0.4-0.6,0.7-0.9c0.3-0.3,0.7-0.5,1.1-0.7c0.5-0.2,1.1-0.3,1.7-0.3
	c1.1,0,2.2,0.3,3,1.1c1.2,1.1,1.5,2.8,0.8,4.3c-0.2,0.5-0.5,0.9-0.9,1.2c-0.4,0.3-0.8,0.7-1.2,1s-0.9,0.6-1.3,0.9
	c-0.5,0.3-0.9,0.6-1.3,1c-0.4,0.4-0.7,0.8-1,1.2h6v1.8L160.7,267.1z"/>
<path class="st1" d="M172.3,256.3c1.7-2,4.8-2.3,6.8-0.6c0.2,0.2,0.4,0.4,0.6,0.6c2,2.8,2,6.5,0,9.3c-1.7,2-4.8,2.3-6.8,0.6
	c-0.2-0.2-0.4-0.4-0.6-0.6C170.3,262.8,170.3,259,172.3,256.3z M178.3,257.6c-0.9-1.3-2.6-1.6-3.9-0.8c-0.3,0.2-0.6,0.5-0.8,0.8
	c-1.3,2.1-1.3,4.7,0,6.7c0.9,1.3,2.6,1.6,3.9,0.7c0.3-0.2,0.5-0.4,0.7-0.7C179.6,262.2,179.6,259.6,178.3,257.6z"/>
<path class="st1" d="M184.5,256.3c1.7-2,4.8-2.3,6.8-0.6c0.2,0.2,0.4,0.4,0.6,0.6c2,2.8,2,6.5,0,9.3c-1.7,2-4.8,2.3-6.8,0.6
	c-0.2-0.2-0.4-0.4-0.6-0.6C182.5,262.8,182.5,259,184.5,256.3z M190.5,257.6c-0.8-1.3-2.6-1.6-3.8-0.8c-0.3,0.2-0.6,0.5-0.8,0.8
	c-1.3,2.1-1.3,4.7,0,6.7c0.9,1.3,2.6,1.6,3.9,0.7c0.3-0.2,0.5-0.4,0.7-0.7C191.8,262.2,191.8,259.6,190.5,257.6z"/>
<path class="st1" d="M204.6,262.9v1.8h-1.6v2.5h-1.9v-2.5h-6v-2.1l5.5-7.8h2.5v8.1H204.6z M201.1,257l-4.1,5.9h4.1L201.1,257z"/>
<rect x="142.9" y="276.2" class="st1" width="42.4" height="5"/>
</svg>
