<?xml version="1.0" encoding="utf-8"?>
<!-- Generator: Adobe Illustrator 22.1.0, SVG Export Plug-In . SVG Version: 6.00 Build 0)  -->
<svg version="1.1" id="Layer_1" xmlns="http://www.w3.org/2000/svg" xmlns:xlink="http://www.w3.org/1999/xlink" x="0px" y="0px"
	 viewBox="0 0 396.8 68.6" style="enable-background:new 0 0 396.8 68.6;" xml:space="preserve">
<title>t7_primary_logo_rgb</title>
<g id="Layer_2_1_">
	<g id="_Layer_1">
		<path d="M388.2,25.8l8.6-10.6h-52.5l7,10.6H388.2z M363.6,64.8c5.2-12.7,15.3-27.1,23.7-37.9l-17.6,3.3
			c-8.2,10.4-17.4,23.2-22.5,34.7H363.6z"/>
		<path d="M333.3,34.6c0,7.3-6.1,10-12.8,10s-12.8-2.7-12.8-10s6.1-10,12.8-10S333.3,27.3,333.3,34.6z M277.7,41.4
			c-7.4,5-23,4.9-23-6.7c0-11.4,15.8-12,23-6.4V41.4z M224.7,30.3h-22c0.8-4.3,4-8,11-8S223.8,26,224.7,30.3z M172.6,34.7
			c0,12-15.2,10.5-23,8V28.3C155.4,22.6,172.6,23.3,172.6,34.7z M111.5,20v-4.8H97.8v38.9h13.9v-13c0-11.2,10.7-15.9,20.5-14V14.5
			C125.9,13.3,115.4,14.6,111.5,20L111.5,20z M81.5,34.6c0,7.3-6.1,10-12.8,10s-12.8-2.6-12.8-10s6.1-10,12.8-10
			S81.5,27.3,81.5,34.6L81.5,34.6z M4.1,11.6H19v42.5h15.8V11.6h15l3.9-11.5H0L4.1,11.6z M95.3,34.6c0-13.8-9.5-21-26.7-21
			C54,13.6,42,20.9,42,34.6s9.5,21,26.7,21S95.3,48.4,95.3,34.6L95.3,34.6z M186,35.3c0-13.5-8.8-21.1-22.2-21.1
			c-6,0-10.2,1.1-14.6,4v-3h-13.5v53.4c4.4-2.2,9.1-3.7,13.9-4.6V52.8c4.5,2,9.4,3,14.3,2.9C177.9,55.7,186,46.5,186,35.3L186,35.3z
			 M239,38.2v-1.1c0-16.2-9.2-23.5-25.4-23.5c-15.8,0-25.3,7.2-25.3,21c0,14.4,10.2,22.1,27.3,22.1c7.5,0,15-1.8,21.6-5.5l-4.3-9.6
			c-5.2,2.7-10.9,4.2-16.8,4.4c-7.6,0-12.7-2.7-13.5-7.7L239,38.2z M291.6,54.1V0c-4.3,2.9-9,5.2-13.9,7v10c-4.5-2-9.4-2.9-14.3-2.8
			c-14,0-22.1,9.1-22.1,20.4c0,13.5,8.8,21.1,22.2,21.1c5.2,0.1,10.2-1.3,14.6-4.1v2.5L291.6,54.1z M347.1,34.6
			c0-13.8-9.5-21-26.6-21s-26.6,7.2-26.6,21s9.5,21,26.6,21S347.1,48.4,347.1,34.6L347.1,34.6z"/>
	</g>
</g>
</svg>
