<?xml version="1.0" encoding="utf-8"?>
<!-- Generator: Adobe Illustrator 22.1.0, SVG Export Plug-In . SVG Version: 6.00 Build 0)  -->
<svg version="1.1" id="Layer_1" xmlns="http://www.w3.org/2000/svg" xmlns:xlink="http://www.w3.org/1999/xlink" x="0px" y="0px"
	 viewBox="0 0 321.4 34.5" style="enable-background:new 0 0 321.4 34.5;" xml:space="preserve">
<style type="text/css">
	.st0{fill:#FFFFFF;}
</style>
<path class="st0" d="M297.7,10.1h-9.6l-16.3,23.6h9.6L297.7,10.1z M303,33.8h-15.8l16.3-23.6h15.8L303,33.8z"/>
<path class="st0" d="M14.7,10.1v2.4H10v15.9c0,0.8,0.1,1.5,0.4,2.2c0.3,0.5,0.9,0.8,2,0.9c0.8,0,1.7,0,2.5-0.1v2.4
	c-0.4,0-0.9,0-1.3,0.1c-0.4,0.1-0.9,0.1-1.3,0.1c-1.9,0-3.2-0.4-4-1.1c-0.8-0.8-1.1-2.2-1.1-4.1V12.4H3v-2.4h4.1V3H10v7.1H14.7z"/>
<path class="st0" d="M20.3,1.5v12.9h0.1c0.6-1.4,1.6-2.6,2.9-3.3c1.4-0.9,3-1.3,4.5-1.3c1.4,0,2.8,0.2,4,0.6c1,0.4,1.9,1,2.7,1.8
	c0.7,0.8,1.2,1.8,1.4,2.8c0.3,1.2,0.4,2.5,0.4,3.7v14.9h-2.8V19.1c0-0.9-0.1-1.9-0.3-2.8c-0.2-0.8-0.5-1.6-1-2.3
	c-0.5-0.7-1.1-1.2-1.9-1.5c-0.8-0.4-1.8-0.5-2.8-0.5c-1.1,0-2.1,0.2-3.1,0.6c-0.9,0.4-1.6,1-2.3,1.7c-0.6,0.8-1.1,1.6-1.5,2.6
	c-0.4,1-0.6,2.1-0.6,3.2v13.5h-2.9V1.5H20.3z"/>
<polygon class="st0" points="88.6,33.6 82.6,33.6 78.9,18.7 78.8,18.7 75.3,33.6 69.5,33.6 62.4,10.5 69.5,10.5 73.2,24.6 
	73.3,24.6 76.7,10.5 82.9,10.5 86.3,24.6 86.4,24.6 90.2,10.5 95.5,10.5 "/>
<path class="st0" d="M109.3,22.5c-2.6,0.3-7.3,0.9-7.3,4.2c-0.1,1.6,1,2.9,2.6,3.1c0.1,0,0.3,0,0.4,0c1.4,0,2.7-0.8,3.3-1.9
	c1-1.5,0.9-2.9,0.9-4.4L109.3,22.5L109.3,22.5z M110,33.6c-0.3-1.2-0.4-2.4-0.3-3.6c-1.9,2.8-3.9,4-7.4,4c-4.1,0-7.3-2.2-7.3-6.6
	c0-3.4,2.2-5.7,5.2-6.9c2.7-1,6.3-1.2,9.2-1.5v-0.6c0.2-1.1-0.1-2.2-0.6-3.1c-0.7-0.8-1.7-1.2-2.8-1.1c-2.2,0-4,1.1-4,3.3l-6.3-0.6
	c0.7-5.6,6.1-7.3,11-7.3c2.4,0,5.5,0.6,7.4,2.1c2.4,1.9,2.2,4.4,2.2,7.3V30c0,1.2,0.1,2.4,0.5,3.4L110,33.6z"/>
<path class="st0" d="M125.8,10.4v4.3h0.1c0.7-2.5,2.1-5,5-4.8l1.2,0.1v6.7c-5.1-0.3-5.7,3.8-5.7,8v8.9h-6.7V10.4H125.8z"/>
<path class="st0" d="M147.5,19.1c-0.1-2.6-1-4.8-3.8-4.8c-2.9,0-4.1,2.2-4.3,4.8H147.5z M139.4,23.1v1.2c0,2.8,1.6,5,4.4,5
	c2.1,0,4.1-1.5,4.1-3.6l6.2,0.5c0,1.2-2.7,8-10.5,8c-6.9,0-11.4-4.8-11.4-11.7s4-12.4,11.2-12.4c3.3,0,6.5,1.5,8.5,4.1
	c1.8,2.8,2.6,5.9,2.4,9.2L139.4,23.1z"/>
<path class="st0" d="M176.5,33.6h-6.7V21.1c0-2,0.2-5.8-2.7-5.8c-1.3-0.1-2.6,0.6-3.2,1.8c-0.5,1.3-0.7,2.7-0.6,4v12.5h-6.8V2.3h6.7
	v11.3h0.1c0.9-2.4,3.5-3.6,6-3.6c2.2-0.1,4.3,0.8,5.8,2.5c1.4,1.9,1.3,4.1,1.3,6.4L176.5,33.6z"/>
<path class="st0" d="M185.9,21.3c0,2.7,0,8.3,3.7,8.3c3.7,0,3.9-4.5,3.9-7.4c0.1-2-0.2-3.8-0.7-5.7c-0.4-1.4-1.8-2.3-3.2-2.1
	C186.1,14.4,185.9,18.6,185.9,21.3z M200.9,22.2c0,6.6-4.3,11.8-11.2,11.8c-7.1,0-11-5.4-11-12.1s3.9-12,11-12
	C197,10,200.9,15.3,200.9,22.2z"/>
<path class="st0" d="M216.7,33.6v-3.9h-0.1c-1,2.8-3.7,4.5-6.7,4.3c-2.4,0-4.3-0.5-5.7-2.6c-1.4-2.1-1.2-4.2-1.2-6.4V10.4h6.7V25
	c0,1.9,0.2,3.6,2.6,3.6c1.5,0,2.9-0.9,3.3-2.3c0.4-1.2,0.5-2.4,0.4-3.5V10.4h6.7v23.2H216.7z"/>
<path class="st0" d="M239.4,17.4c-0.6-2.2-2.4-3.1-4.5-3.1c-1.4,0-3.4,0.4-3.4,2.1c0,4.3,13.9-0.6,13.9,9.8c0,2.4-1.2,4.6-3.2,6
	c-2.2,1.4-4.6,2-7.2,1.9c-4.8,0-9.4-1.7-10.6-6.9l5.8-0.8c0.5,2.4,3,3.1,5.1,3.1c1.3,0,4-0.5,4-2.2c0-1.6-1.4-1.9-2.6-2
	c-2.4-0.3-4.6-0.8-6.9-1.4c-2.8-0.9-4.5-3.3-4.5-6.3c0-5.7,4.9-7.8,9.9-7.8c4.5,0,7.5,1.8,9.2,6.1L239.4,17.4z"/>
<path class="st0" d="M262,19.1c-0.1-2.6-1-4.8-3.8-4.8s-4.1,2.2-4.3,4.8H262z M253.9,23.1v1.2c0,2.8,1.6,5,4.4,5
	c2.1,0,4.1-1.5,4.1-3.6l6.2,0.5c0,1.2-2.8,8-10.6,8c-6.9,0-11.4-4.8-11.4-11.7s4-12.4,11.2-12.4c3.3,0,6.5,1.5,8.5,4.1
	c1.8,2.8,2.7,5.9,2.4,9.2L253.9,23.1z"/>
<path class="st0" d="M42.4,17.3c0.4-1,0.9-1.9,1.5-2.7c0.6-0.8,1.4-1.4,2.3-1.9c1-0.5,2-0.7,3.1-0.7c1.1,0,2.1,0.2,3.1,0.7
	c0.9,0.5,1.7,1.1,2.3,1.9c0.6,0.8,1.1,1.7,1.4,2.7c0.4,1,0.5,2.1,0.6,3.1H41.6C41.8,19.3,42,18.2,42.4,17.3z M54,30.1
	c-1.4,1.2-3.1,1.7-4.8,1.6c-1.2,0-2.4-0.3-3.4-0.9c-1-0.5-1.8-1.3-2.4-2.2c-0.6-0.9-1.1-1.9-1.4-3c-0.3-1-0.4-2.1-0.4-3.2h17.7
	c0.1-1.6-0.1-3.2-0.5-4.7c-0.3-1.5-0.9-2.9-1.7-4.1c-1.8-2.7-4.7-4.1-7.9-4c-1.7,0-3.2,0.3-4.7,1.1c-1.3,0.7-2.4,1.6-3.2,2.8
	c-0.9,1.2-1.5,2.6-1.9,3.9c-0.4,1.5-0.6,3-0.6,4.4c0,1.6,0.2,3.2,0.5,4.6c0.4,1.4,1,2.7,1.9,3.8c0.9,1.1,2,2.1,3.2,2.7
	c1.5,0.7,3.1,1,4.7,1c3,0,5.1-0.7,6.7-2.2c1.4-1.3,2.5-3,3-4.8l-2.6-1C56,27.6,55.2,29,54,30.1z"/>
</svg>
