<svg id="Layer_1" data-name="Layer 1" xmlns="http://www.w3.org/2000/svg" viewBox="0 0 164.81 75.9"><title>TNF Black</title><path d="M112.62,25.2h-2.46V50h4.18a8.79,8.79,0,0,1,8.78,8.77V75.27h18.3V54A28.84,28.84,0,0,0,112.62,25.2Z" transform="translate(0 0)"/><path d="M122.12,58.8A7.79,7.79,0,0,0,114.34,51h-4.18V75.27h12Z" transform="translate(0 0)"/><path d="M59.89,23.58H55V4.22H47.86V.06H67V4.22H59.89Z" transform="translate(0 0)"/><path d="M73.2,13V23.58H68.28V.06H73.2V9h9.17V.06h4.91V23.58H82.37V13Z" transform="translate(0 0)"/><path d="M107,4.22H94.58v5h10.89v4.16H94.58v6.09H107v4.16H90V.06h17Z" transform="translate(0 0)"/><path d="M14.58,25.91h4.59V49.43H14.26L4.66,32.66H4.59V49.43H0V25.91H5.17l9.34,16.38h.07Z" transform="translate(0 0)"/><path d="M32.89,25.28c3.11,0,11.3,1.35,11.3,12.39S36,50.05,32.89,50.05,21.58,48.71,21.58,37.67,29.77,25.28,32.89,25.28Zm0,20.61c2.65,0,6.38-1.63,6.38-8.22s-3.73-8.23-6.38-8.23-6.4,1.65-6.4,8.23S30.23,45.89,32.89,45.89Z" transform="translate(0 0)"/><path d="M79.07,49.43H74.15V30.07H67V25.91H86.17v4.16h-7.1Z" transform="translate(0 0)"/><path d="M92.85,38.89V49.43H87.94V25.91h4.91v8.91H102V25.91H107V49.43H102V38.89Z" transform="translate(0 0)"/><path d="M36.8,75.28H31.89V51.75H48.62v4.17H36.8v5.3H47.16v4.17H36.8Z" transform="translate(0 0)"/><path d="M50.86,75.28H45.68l8.39-23.53h5.67L68,75.28H62.69l-1.51-4.85H52.5Zm3-8.91h6l-2.91-9.31h-.06Z" transform="translate(0 0)"/><path d="M83.12,59.46c-.39-1.41-1.15-4.07-5.21-4.07-2.36,0-5.84,1.57-5.84,8.22,0,4.23,1.68,8,5.84,8a5,5,0,0,0,5.21-4.43H88c-1,5.11-4.32,8.68-10.22,8.68-6.25,0-10.75-4.22-10.75-12.35s4.75-12.42,10.82-12.42c7.05,0,9.89,4.85,10.15,8.33Z" transform="translate(0 0)"/><path d="M107,55.92H94.58v4.94h10.89V65H94.58v6.1H107v4.16H90V51.75h17Z" transform="translate(0 0)"/><path d="M46.6,25.9H58.46c6.25,0,7.39,4.6,7.39,6.64a5.59,5.59,0,0,1-3.63,5.58c1.93.85,3,1.57,3,6,0,3.44,0,4.29,1,4.68v.62H60.81a15.93,15.93,0,0,1-.52-4.74c0-3.2-.19-4.45-3.83-4.45H51.4v9.19H46.6ZM57.16,36.23c2.55,0,3.79-.89,3.79-3.21,0-1.24-.56-3.07-3.43-3.07H51.4v6.28Z" transform="translate(0 0)"/><path d="M25.16,72.18l.89,1.36m-2.34,0v-3H25c.8,0,1.07.31,1.07.8s-.41.82-.94.83H23.71" transform="translate(0 0)"/><path d="M24.71,68.83a3.23,3.23,0,1,0,3.22,3.23A3.23,3.23,0,0,0,24.71,68.83Z" transform="translate(0 0)"/><path d="M110.19,0h0V24.19h2.46A29.84,29.84,0,0,1,142.42,54V75.27h22.39V54.79A54.66,54.66,0,0,0,110.19,0Z" transform="translate(0 0)"/></svg>