<svg version="1.1" xmlns="http://www.w3.org/2000/svg" xmlns:xlink="http://www.w3.org/1999/xlink" x="0px" y="0px"
	 viewBox="0 0 123.3 32" style="enable-background:new 0 0 123.3 32;" xml:space="preserve">
<path style="fill:#ffffff" d="M105.6,1.4c-1.2,0-2.4,0.2-3.5,0c-32.1,0-64.3,0-96.4,0c-1.4,0.7,0.2,2.1,0.5,3c2.1,3.8,4.4,7.4,6.3,11.3
	c-0.1,1.8-1.6,3.2-2.3,4.8c-1.7,3.1-3.7,6-5.1,9.2c0.3,1.4,2.2,0.6,3.1,0.8c32.9,0,65.8,0,98.7,0c1.6-0.6,2-2.6,3.1-3.8
	c2.2-3.4,4.7-6.8,6.8-10.3c0.1-0.4,0-0.8-0.2-1.2c-3-4.4-5.9-9-9.1-13.4C107,1.5,106.3,1.5,105.6,1.4L105.6,1.4z M62.1,9.2
	c0.5,0,1,0,1.6,0c2,0.2,3.8,2,4,4c0.3,1.8-1.1,3.6-2.5,4.4c0.8,1.2,1.6,2.4,2.4,3.6c0.2,0.4,0.1,1-0.3,1.3c-0.5,0.4-1.2,0.1-1.5-0.4
	c-1-1.5-2-3-3-4.6c-0.3-0.6,0.1-1.4,0.8-1.5c1.2-0.2,2.2-1.2,2.2-2.4c0.1-1.4-1.3-2.6-2.6-2.5c-1.2,0-2.3,0-3.5,0
	c-0.8,0-1.2-1.1-0.6-1.6c0.4-0.5,1.1-0.3,1.6-0.3C61,9.2,61.5,9.2,62.1,9.2z M78.4,9.3c0.4,0,0.9,0.2,1,0.6c0.2,0.5-0.1,0.9-0.4,1.3
	L75.8,16l3.5,5.2c0.4,0.6,0,1.5-0.7,1.5c-0.5,0.1-0.9-0.3-1.1-0.7c-1.2-1.9-2.5-3.7-3.7-5.6c-0.2-0.4-0.1-0.9,0.2-1.3
	c1.2-1.9,2.5-3.7,3.7-5.6C77.9,9.4,78.1,9.3,78.4,9.3z M86.7,9.3c1,0,2,0,3,0c0.8,0,1.2,1.1,0.6,1.6c-0.4,0.5-1.1,0.3-1.6,0.3
	l-2.4,0c-1.3,0-2.7,1.2-2.5,2.6c0,1.6,0,3.2,0,4.8c0.1,1.4,1.5,2.4,2.8,2.2c1,0,2.1,0,3.1,0c0.8,0,1.2,1.1,0.6,1.6
	c-0.4,0.5-1.1,0.3-1.6,0.3c-1,0-1.9,0-2.9,0c-2-0.2-3.8-2-4-4c0-1.3,0-2.6,0-4c0-1,0-2,0.5-3C83.1,10.1,84.9,9.1,86.7,9.3L86.7,9.3z
	 M94.3,9.3h6.8c0.6,0,1.2,0.7,0.9,1.3c-0.1,0.4-0.5,0.7-0.9,0.7h-7c-0.6,0-1.2-0.7-0.9-1.3C93.3,9.5,93.8,9.2,94.3,9.3z M30.4,9.3
	c0.2,0,0.3,0.1,0.5,0.2c0.4,0.3,0.6,0.8,0.9,1.2c1.5,2.2,3.1,4.5,4.6,6.7c0.2,0.4,0.1,1-0.3,1.3c-0.5,0.4-1.2,0.1-1.5-0.4l-3.2-4.8
	v8.3c0,0.7-0.9,1.2-1.5,0.8c-0.4-0.3-0.5-0.8-0.4-1.2c0-3.7,0-7.4,0-11.1C29.4,9.6,29.9,9.2,30.4,9.3z M20.8,9.3
	c0.1,0,0.2,0,0.2,0.1c0.2,0.1,0.2,0.4,0.2,0.7c0,0.4,0,0.8,0,1.2c0.1,0.5,0.6,1,1.1,0.9c0.7,0,1.4,0,2,0c0.6,0,1-0.6,1-1.2
	c0-0.4,0-0.9,0-1.3c0-0.3,0.5-0.5,0.7-0.3c0.2,0.2,0.1,0.5,0.1,0.7c0,0.4,0,0.8,0,1.2c-0.1,1-1,1.8-2,1.7h-2c-1,0-1.9-1-1.8-2V9.7
	C20.3,9.4,20.6,9.3,20.8,9.3L20.8,9.3z M40.6,9.3c0.4,0,0.9,0.2,1,0.7c0.1,0.5,0,1.1,0,1.6l0,10.1c0,0.7-0.9,1.2-1.5,0.8
	c-0.4-0.2-0.5-0.7-0.5-1.2v-8c-0.5,0.7-1,1.5-1.5,2.2c-0.4,0.6-1.5,0.4-1.7-0.3c-0.2-0.5,0.1-0.9,0.4-1.3c1-1.5,2-2.9,3-4.4
	C40.1,9.4,40.3,9.3,40.6,9.3L40.6,9.3z M71.8,9.3c0.2,0,0.3,0.1,0.5,0.2c0.4,0.3,0.4,0.8,0.4,1.2v11.1c0,0.7-0.9,1.2-1.5,0.8
	c-0.4-0.2-0.5-0.7-0.5-1.2c0-3.8,0-7.5,0-11.3C70.7,9.6,71.3,9.2,71.8,9.3L71.8,9.3z M50.4,9.3c0.4,0,0.7,0.3,0.8,0.6
	c1.7,3.8,3.4,7.7,5.1,11.5c0.2,0.5-0.1,1-0.5,1.2c-0.6,0.3-1.2-0.1-1.4-0.7l-4.1-9.3c-1.4,3.2-2.8,6.4-4.2,9.6
	c-0.3,0.7-1.5,0.7-1.8-0.1c-0.3-0.6,0.2-1.1,0.4-1.7c1.6-3.6,3.2-7.2,4.8-10.8C49.6,9.4,50,9.3,50.4,9.3z M23.2,9.8
	c0.2,0,0.4,0.1,0.5,0.4c0,0,0,0.1,0,0.1v1.1c0,0.3-0.3,0.5-0.6,0.4c-0.2-0.1-0.3-0.2-0.3-0.4v-1.1C22.8,10,23,9.8,23.2,9.8z
	 M97.6,12.3c0.2,0,0.3,0,0.5,0.1c0.4,0.2,0.6,0.7,0.5,1.1v8.3c0.1,0.7-0.7,1.2-1.4,1c-0.4-0.2-0.7-0.7-0.6-1.1v-8.4
	C96.7,12.7,97.2,12.3,97.6,12.3L97.6,12.3z M59.6,12.3c0.2,0,0.3,0,0.5,0.1c0.4,0.2,0.6,0.7,0.6,1.1v8.3c0,0.7-0.8,1.2-1.4,0.9
	c-0.4-0.2-0.6-0.7-0.6-1.1v-8.3C58.6,12.8,59.1,12.4,59.6,12.3z M21,14.1c1.6,0,3.2,0,4.8,0c0.3,0,0.5,0.4,0.3,0.7
	C26,14.9,25.8,15,25.7,15c-1.7,0-3.3,0-5,0c-0.3,0-0.5-0.4-0.3-0.7C20.5,14.1,20.8,14.1,21,14.1z M85.8,15h2.6c0.5,0,1,0.4,1,1
	c0,0.5-0.5,1-1,1h-2.7c-0.6,0-1.2-0.7-0.9-1.3C84.9,15.3,85.4,15,85.8,15z M23.3,15.4c0.1,0,0.1,0,0.2,0.1c0.2,0.1,0.2,0.4,0.2,0.6
	V17c0.7,0,1.4,0,2.1,0c0.3,0,0.5,0.4,0.3,0.7c-0.1,0.2-0.4,0.2-0.6,0.2c-1.6,0-3.2,0-4.7,0c-0.3,0-0.5-0.4-0.3-0.7
	C20.6,17,20.8,17,21,17h1.8c0-0.4,0-0.8,0-1.2C22.8,15.6,23.1,15.4,23.3,15.4z M50.2,16.8c0.2,0,0.5,0,0.7,0.2
	c0.5,0.4,0.5,1.2,0,1.5c-0.2,0.1-0.4,0.2-0.6,0.2c-0.6,0-1.2-0.7-0.9-1.3C49.4,17.1,49.8,16.9,50.2,16.8z M20.7,19
	c0.1,0,0.1,0,0.2,0c0.2,0.1,0.3,0.3,0.3,0.5v2.9c0,0.3-0.3,0.5-0.5,0.4c-0.2,0-0.3-0.3-0.3-0.5v-3C20.3,19.2,20.5,19,20.7,19
	L20.7,19z M25.7,20.4c0.3,0,0.5,0.4,0.4,0.6c-0.1,0.2-0.2,0.2-0.4,0.2c-1.2,0-2.5,0-3.7,0c-0.3,0-0.5-0.4-0.4-0.6
	c0.1-0.2,0.3-0.3,0.5-0.2C23.3,20.4,24.5,20.4,25.7,20.4z"/>
</svg>
