<?xml version="1.0" encoding="iso-8859-1"?>
<!-- Generator: Adobe Illustrator 22.1.0, SVG Export Plug-In . SVG Version: 6.00 Build 0)  -->
<svg version="1.1" id="Layer_1" xmlns="http://www.w3.org/2000/svg" xmlns:xlink="http://www.w3.org/1999/xlink" x="0px" y="0px"
	 viewBox="0 0 327.677 54.467" style="enable-background:new 0 0 327.677 54.467;" xml:space="preserve">
<path d="M274.296,27.521c0,5.813-5.013,7.946-10.554,7.946c-5.54,0-10.553-2.133-10.553-7.946c0-5.815,5.013-7.946,10.553-7.946
	C269.283,19.574,274.296,21.706,274.296,27.521 M285.677,27.521c0-10.944-7.792-16.701-21.935-16.701
	c-14.141,0-21.934,5.757-21.934,16.701c0,10.943,7.793,16.701,21.934,16.701C277.885,44.222,285.677,38.464,285.677,27.521"/>
<path d="M228.546,32.888c0,0-2.847,1.848-6.622,2.395c-0.057,0.008-2.059,0.161-2.1,0.161c-5.598,0-10.207-2.736-10.207-7.866
	s4.609-7.882,10.207-7.866c0.928,0.003,1.852,0.126,2.135,0.18c4.049,0.694,6.587,2.598,6.587,2.598V32.888z M240.003,42.967V0
	c0,0-4.559,2.881-7.851,4.214c-1.664,0.675-3.612,1.362-3.612,1.362v7.897h-0.115c-3.634-1.398-6.233-2.197-11.66-2.197
	c-11.485,0-18.182,7.239-18.182,16.188c0,10.717,7.215,16.759,18.298,16.759c4.964,0,8.8-1.255,11.891-3.228h0.115v1.973H240.003z"
	/>
<path d="M184.903,24.101h-18.124c0.691-3.42,3.29-6.327,9.062-6.327C181.613,17.773,184.211,20.681,184.903,24.101 M196.713,30.37
	v-0.912c0-12.882-7.539-18.639-20.93-18.639c-12.987,0-20.813,5.7-20.813,16.643c0,11.457,8.358,17.532,22.442,17.532
	c7.795,0,13.721-2.214,17.782-4.354l-3.512-7.621c-3.513,1.701-8.554,3.473-13.808,3.473c-6.293,0-10.461-2.132-11.096-6.122
	H196.713z"/>
<path d="M142.066,27.577c0,5.13-4.608,7.866-10.207,7.866c-0.155,0-0.195-0.006-0.346-0.011c-4.211-0.222-8.375-1.522-8.375-1.522
	V22.473c0,0,1.936-1.834,6.449-2.56c0.697-0.11,1.699-0.202,2.272-0.202C137.458,19.711,142.066,22.447,142.066,27.577
	 M153.1,28.033c0-10.716-7.215-16.758-18.298-16.758c-4.964,0-8.238,0.861-11.89,3.184h-0.116v-2.386H111.68v42.394
	c0,0,3.39-1.5,7.009-2.672c1.783-0.577,4.454-0.967,4.454-0.967v-8.905h0.115c3.073,1.278,6.234,2.299,11.66,2.299
	C146.404,44.222,153.1,36.982,153.1,28.033"/>
<path d="M101.537,21.691c2.265-0.446,5.342-0.556,7.246-0.206v-9.93c-1.212-0.227-2.829-0.279-4.156-0.279
	c-5.541,0-10.39,1.499-12.757,4.635h-0.115v-3.837H80.466v30.893h11.462V32.633C91.928,27.047,94.918,22.995,101.537,21.691"/>
<path d="M67.048,27.521c0,5.813-5.012,7.946-10.553,7.946s-10.554-2.133-10.554-7.946c0-5.815,5.013-7.946,10.554-7.946
	S67.048,21.706,67.048,27.521 M78.429,27.521c0-10.944-7.792-16.701-21.934-16.701c-12.076,0-21.934,5.757-21.934,16.701
	c0,10.943,7.792,16.701,21.934,16.701C70.637,44.222,78.429,38.464,78.429,27.521"/>
<polygon points="0,0.129 3.373,9.249 15.653,9.249 15.653,42.997 28.615,43.011 28.615,9.249 40.973,9.249 44.131,0.129 "/>
<path d="M302.838,27.217c-3.715,4.679-10.848,13.268-15.975,24.4h13.482c4.348-10.261,9.666-18.231,19.324-29.91
	c0.054-0.065,0.134-0.16,0.191-0.229l-14.486,2.613c0.002-0.003,0.004-0.005,0.006-0.008
	C304.379,25.307,303.373,26.543,302.838,27.217 M327.677,12.173h-43.255l5.797,8.437h18.014l-0.005,0.006h12.351
	C323.107,17.584,327.677,12.173,327.677,12.173"/>
<g>
</g>
<g>
</g>
<g>
</g>
<g>
</g>
<g>
</g>
<g>
</g>
</svg>
