<svg id="Layer_1" data-name="Layer 1" xmlns="http://www.w3.org/2000/svg" viewBox="0 0 129.2 28.8"><title>2014_Trek_BW_Horizontal_Black</title><path d="M22.91,12.16a39.35,39.35,0,0,0,.86-10.51l0-.31-.3-.08A47.83,47.83,0,0,0,15.63.13a35.58,35.58,0,0,0,5.68,17.33A32.44,32.44,0,0,0,22.91,12.16Z"/><path d="M19.26,19.89a50.74,50.74,0,0,1-2.76-7.57,57.56,57.56,0,0,1-1.59-7.9c-.19-1.45-.32-2.9-.4-4.36l-.95,0a97.2,97.2,0,0,0,3.37,24.63,23.2,23.2,0,0,0,2.76-3.86Z"/><path d="M.92,12.16A39.35,39.35,0,0,1,.06,1.65l0-.31.3-.08A48.07,48.07,0,0,1,8.2.13,35.58,35.58,0,0,1,2.52,17.46,32.44,32.44,0,0,1,.92,12.16Z"/><path d="M4.57,19.89a50.74,50.74,0,0,0,2.76-7.57,57.56,57.56,0,0,0,1.59-7.9c.19-1.45.32-2.9.4-4.36l.95,0A97.2,97.2,0,0,1,6.9,24.66,23.2,23.2,0,0,1,4.14,20.8Z"/><path d="M13.46,21.8c-.48-4.24-.74-8.49-.88-12.74Q12.43,4.53,12.4,0h-1q0,4.53-.18,9.06c-.14,4.25-.4,8.5-.88,12.74q-.3,2.73-.74,5.44a19.86,19.86,0,0,0,2.06,1.43l.22.13h0l.22-.13a19.86,19.86,0,0,0,2.06-1.43Q13.77,24.53,13.46,21.8Z"/><polygon points="55.84 8.72 33.26 8.72 32.46 10.92 40.24 10.92 36.87 20.23 44.56 20.23 47.93 10.93 55.04 10.93 55.84 8.72"/><polygon points="112.53 8.72 104.42 8.72 100.24 20.24 108.36 20.24 112.53 8.72"/><polygon points="111.05 14.09 115.88 20.24 125.25 20.24 119.86 14.15 129.2 8.72 119.68 8.72 111.05 14.09"/><path d="M101.83,10.93l.8-2.21H81.84L79,16.64a1.47,1.47,0,0,0,.17,1.51l1.24,1.41a1.77,1.77,0,0,0,1.41.68H98.46l.8-2.19H87.62A.8.8,0,0,1,86.76,17l.53-1.45h12.88l.79-2.2H88.08l.87-2.4Z"/><path d="M78,8.72H57.28L53.11,20.24H61l3.35-9.31h5.91a.69.69,0,0,1,.74.92c-.15.48-.35,1-.5,1.39a1.4,1.4,0,0,1-1.37.85H63.62l4.81,6.15h9.12l-4.1-4.61h2.46A2.1,2.1,0,0,0,78,14.26c.35-.86,1.11-3,1.35-3.7C79.77,9.41,79.11,8.72,78,8.72Z"/></svg>