<?xml version="1.0" encoding="utf-8"?>
<!-- Generator: Adobe Illustrator 22.1.0, SVG Export Plug-In . SVG Version: 6.00 Build 0)  -->
<svg version="1.1" id="Layer_1" xmlns="http://www.w3.org/2000/svg" xmlns:xlink="http://www.w3.org/1999/xlink" x="0px" y="0px"
	 viewBox="0 0 291 123.3" style="enable-background:new 0 0 291 123.3;" xml:space="preserve">
<style type="text/css">
	.st0{fill:#231F20;}
</style>
<path class="st0" d="M193.3,115.6c0-1.2-0.3-3,2.1-3h4c2.3,0,2.1,1.9,2.1,3c0,1.3,0.1,3.3-1.7,3.3H195
	C193.1,118.9,193.3,117,193.3,115.6 M189.1,115.6c0,2.6-0.2,6.7,3.4,6.7h9.4c3.6,0,3.4-4,3.4-6.7c0-2.4,0.3-6.2-4.2-6.2h-7.9
	C188.8,109.4,189.1,113.1,189.1,115.6z M168.1,110.4v10.9c0,0.4-0.1,0.9,0.7,0.9h2.2c0.8,0,0.7-0.5,0.7-0.9v-8
	c1.5,2.9,3.7,7.3,4.5,8.9h3.3c0.8-1.6,3-6,4.5-8.9v8c0,0.4-0.1,0.9,0.7,0.9h2.2c0.8,0,0.7-0.5,0.7-0.9v-10.9c0-0.4,0.1-0.9-0.7-0.9
	h-3.7c-0.6,0-1.4-0.1-2.3,1.8c-0.7,1.5-2.1,4.7-3.1,6.4c-1-1.7-2.4-4.8-3.1-6.4c-0.9-1.9-1.7-1.8-2.2-1.8h-3.7
	C168,109.4,168.1,110,168.1,110.4z M155.6,113.3c0-0.3,0-0.5,0.8-0.5c0.9,0,4.8,0,4.8,0c1.7,0,1.8,0.2,1.8,1.5c0,0.7,0,1.3-2.4,1.3
	c-1.9,0-4.9,0-4.9,0V113.3z M151.6,110.5v11.2c0,0.5,0.5,0.4,0.3,0.4h3.2c0.2,0,0.6-0.1,0.6-0.5v-5.3c0,0,0.9,1.8,1.3,2.6
	c0,0,4.3,0,4.6,0c0.3,0,1.1-0.1,1.1,1.5c0,0.6-0.2,1.7,0.5,1.7h3.1c0.2,0,0.4,0,0.4-0.7c0-1.4,0.3-4-1.7-4.3c1.1-0.8,1.7-1,1.7-3.7
	c0-4.1-2.1-4.1-3.5-4.1h-10.7C152.2,109.4,151.6,109.7,151.6,110.5z M139.7,116.9c0.1-0.3,1.8-3.5,2-3.8l0.2,0
	c0.2,0.3,1.8,3.6,1.9,3.8l-0.2,0.2h-3.7L139.7,116.9z M139.3,109.5c0,0-5.7,10.8-6.5,12.5v0.3h4.1c0.6-1,2.2-4.3,2.5-4.8
	c0.2,0.6,1.1,2.6,1.1,2.6h4.9l1.2,2.2h4.1v-0.4c-0.8-1.6-4.7-9-5.3-10.2c-0.8-1.7-1.6-2.1-2.4-2.1H139.3z M113.2,113.3
	c0-0.3,0-0.5,0.8-0.5c0.9,0,4.8,0,4.8,0c1.7,0,1.8,0.2,1.8,1.5c0,0.7,0,1.3-2.4,1.3c-1.9,0-4.9,0-4.9,0V113.3z M109.3,110.5v11.2
	c0,0.5,0.5,0.4,0.3,0.4h3.2c0.2,0,0.6-0.1,0.6-0.5v-5.3c0,0,0.9,1.8,1.3,2.6c0,0,4.3,0,4.6,0c0.3,0,1.1-0.1,1.1,1.5
	c0,0.6-0.2,1.7,0.5,1.7h3.1c0.2,0,0.4,0,0.4-0.7c0-1.4,0.3-4-1.7-4.3c1.1-0.8,1.7-1,1.7-3.7c0-4.1-2.1-4.1-3.5-4.1h-10.7
	C109.8,109.4,109.3,109.7,109.3,110.5z M94.4,112.1c0,0,0,5.7,0,7c0,2.8,1.7,3.1,2.5,3.1c0.3,0,10.2,0,10.2,0c0.8,0,0.7-0.6,0.7-1.6
	c0-1,0.1-1.6-0.7-1.6c0,0-7.8,0-8,0c-0.2,0-0.8,0.2-0.8-0.6c0-0.6,0-3.4,0-3.4l1.1,2.3c0,0,6.4,0,7.1,0c0.6,0,0.6-0.3,0.5-0.6
	c-0.1-0.3-1.1-2.3-1.1-2.3h-6.8c-0.8,0-0.6-0.3-0.6-1.1s0.7-0.7,0.9-0.7c0.3,0,7.7,0,7.7,0c0.8,0,0.7-0.6,0.7-1.6
	c0-1.1,0.1-1.6-0.7-1.6c0,0-9.5,0-9.8,0C94.8,109.5,94.4,111.4,94.4,112.1z M87.1,112.8c1.3,0,2.1,0.1,2.1,3.1
	c0,0.9,0.1,2.9-1.8,2.9c-2,0-6.3,0-6.3,0v-6H87.1z M87.9,109.4H77.3v12.8h3.7v-2.7l1.2,2.7c0,0,4.6,0,5.7,0c5.4,0,4.9-3,4.9-8
	C92.9,109.3,88.6,109.4,87.9,109.4z M57.9,117.1v-6.7c0-0.4,0.1-0.9-0.8-0.9h-2.4c-0.8,0-0.7,0.6-0.7,0.9c0,0,0,6.2,0,6.7
	c0,0.5-0.1,1.8-1.7,1.8h-4c-1.7,0-1.7-1.3-1.7-1.8c0-0.5,0-6.7,0-6.7c0-0.4,0-0.9-0.7-0.9h-2.4c-0.8,0-0.8,0.5-0.8,0.9v6.7
	c0,1.4,0.1,5.1,4.6,5.1h5.8C57.9,122.2,57.9,118.5,57.9,117.1z M68.5,113.7c-1.1-1.7-2.9-4.3-4.1-4.3h-4.3c-0.7,0-0.7,0.6-0.7,0.9
	v10.9c0,0.4-0.1,0.9,0.7,0.9h2.2c0.8,0,0.7-0.5,0.7-0.9v-8.2c2.3,3.1,4.6,6,6.2,8.3c0.9,0.9,1.3,0.8,2.2,0.8c0.9,0,3.8,0,4.4,0
	v-11.8c0-0.4,0-0.9-0.7-0.9h-2.4c-0.8,0-0.7,0.6-0.7,0.9v8.1C70.9,117,69.3,115,68.5,113.7z M163.8,46.2c-5.6,3.7-13.3,6.2-22.7,6.2
	l-0.3,0h0l-0.3,0c-9.4,0-17.1-2.5-22.7-6.2c5.6-3.7,13.3-6.2,22.7-6.2l0.3,0h0l0.3,0C150.5,40,158.2,42.5,163.8,46.2z M186.5,46.2
	c15.9-7.4,26.3-18.6,26.8-31c0,0-4.2-3.4-17.7-8.7c-11.9-4.6-21-5.7-21-5.7l0,27.6c0,4.1-1.6,8.3-4.5,12.1c-9-2.3-18.9-3.6-29.3-3.6
	h0c-10.4,0-20.4,1.3-29.4,3.6c-2.9-3.7-4.5-7.9-4.5-12.1l0-27.6c0,0-9.1,1.1-21,5.7c-13.5,5.3-17.7,8.7-17.7,8.7
	c0.6,12.4,11,23.5,26.9,31c-15.9,7.4-26.3,18.6-26.8,31c0,0,4.2,3.4,17.7,8.7c11.9,4.7,21,5.7,21,5.7l0-27.6c0-4.1,1.6-8.3,4.5-12.1
	c9,2.3,18.9,3.6,29.3,3.6h0c10.4,0,20.4-1.3,29.4-3.6c2.9,3.7,4.5,7.9,4.5,12.1l0,27.6c0,0,9.1-1.1,21-5.7
	c13.5-5.3,17.7-8.7,17.7-8.7C212.7,64.8,202.4,53.7,186.5,46.2z M221.8,117.1v-6.7c0-0.4,0.1-0.9-0.8-0.9h-2.4
	c-0.8,0-0.7,0.6-0.7,0.9c0,0,0,6.2,0,6.7c0,0.5-0.1,1.8-1.7,1.8h-4c-1.7,0-1.7-1.3-1.7-1.8c0-0.5,0-6.7,0-6.7c0-0.4,0-0.9-0.7-0.9
	h-2.4c-0.8,0-0.8,0.5-0.8,0.9v6.7c0,1.4,0.1,5.1,4.6,5.1h5.8C221.7,122.2,221.8,118.5,221.8,117.1z M234.6,114.3
	c0,0.7,0,1.3-2.4,1.3c-1.9,0-4.9,0-4.9,0v-2.3c0-0.3,0-0.5,0.8-0.5c0.9,0,4.8,0,4.8,0C234.5,112.8,234.6,113,234.6,114.3z
	 M238.6,113.5c0-4.1-2.1-4.1-3.5-4.1h-10.7c-0.5,0-1,0.3-1,1.1v11.2c0,0.5,0.5,0.4,0.3,0.4h3.2c0.2,0,0.6-0.1,0.6-0.5v-5.3
	c0,0,0.9,1.8,1.3,2.6c0,0,4.3,0,4.6,0c0.3,0,1.1-0.1,1.1,1.5c0,0.6-0.2,1.7,0.5,1.7h3.1c0.2,0,0.4,0,0.4-0.7c0-1.4,0.3-4-1.7-4.3
	C238,116.3,238.6,116.2,238.6,113.5z M242.4,119.3c0,0.2-0.1,0.2-0.4,0.2c-0.3,0-0.6,0-0.6,0V119c0,0,0.3,0,0.6,0
	C242.3,119,242.4,119.1,242.4,119.3L242.4,119.3z M242.9,119.3c0-0.4-0.2-0.8-0.7-0.8h-1c-0.3,0-0.3,0.1-0.3,0.4v2l0.2,0.3
	c0.1,0,0.3,0,0.3-0.3v-0.9h0.3c0.2,0.3,0.4,0.7,0.7,1.1c0.1,0.1,0.5,0,0.4-0.3c-0.1-0.2-0.3-0.6-0.4-0.8
	C242.7,120.1,242.9,119.7,242.9,119.3z M243.5,119.8c0,1-0.7,1.8-1.7,1.8c-1,0-1.7-0.8-1.7-1.8c0-0.9,0.8-1.8,1.7-1.8
	C242.7,118.1,243.5,118.8,243.5,119.8z M244,119.8c0-1.3-1-2.3-2.2-2.3c-1.1,0-2.2,1-2.2,2.3c0,1.3,0.9,2.4,2.2,2.4
	C243,122.2,244,121.1,244,119.8z"/>
</svg>
