<?xml version="1.0" encoding="utf-8"?>
<!-- Generator: Adobe Illustrator 22.1.0, SVG Export Plug-In . SVG Version: 6.00 Build 0)  -->
<svg version="1.1"
	 id="svg15050" inkscape:version="0.92.0 r15299" sodipodi:docname="warehouse stationary.svg" xmlns:cc="http://creativecommons.org/ns#" xmlns:dc="http://purl.org/dc/elements/1.1/" xmlns:inkscape="http://www.inkscape.org/namespaces/inkscape" xmlns:rdf="http://www.w3.org/1999/02/22-rdf-syntax-ns#" xmlns:sodipodi="http://sodipodi.sourceforge.net/DTD/sodipodi-0.dtd" xmlns:svg="http://www.w3.org/2000/svg"
	 xmlns="http://www.w3.org/2000/svg" xmlns:xlink="http://www.w3.org/1999/xlink" x="0px" y="0px" viewBox="0 0 178.4 62.1"
	 style="enable-background:new 0 0 178.4 62.1;" xml:space="preserve">
<style type="text/css">
	.st0{fill:#FFFFFF;}
	.st1{fill:#777777;}
	.st2{fill:#999999;}
	.st3{fill:#BBBBBB;}
	.st4{fill:#E5E5E5;}
	.st5{fill:#333333;}
</style>
<g id="layer1" transform="translate(-87.527889,-206.30483)" inkscape:groupmode="layer" inkscape:label="Layer 1">
	<g id="g15119" transform="translate(0.79375163,-0.79373029)">
		<path id="path14131" inkscape:connector-curvature="0" class="st0" d="M161.5,233c0.2,0.5,0.6,0.9,1.1,0.9h0c0.5,0,0.9-0.3,1-0.9
			l2.5-7.3l2.5,7.3c0.2,0.5,0.5,0.9,1,0.9h0.1c0.5,0,0.9-0.3,1-0.9l3.3-9.1l0,0c0-0.1,0.1-0.3,0.1-0.5c0-0.5-0.4-0.9-1-0.9
			c-0.5,0-0.8,0.3-0.9,0.7l-2.6,7.6l-2.5-7.5c-0.2-0.5-0.5-0.8-1-0.8h-0.1c-0.5,0-0.8,0.3-1,0.8l-2.5,7.5l-2.5-7.5
			c-0.2-0.5-0.5-0.8-1-0.8c-0.5,0-1,0.4-1,0.9c0,0.2,0.1,0.3,0.1,0.5L161.5,233z M179.2,233.9c1.8,0,3-0.8,3.7-1.5v0.5
			c0,0.5,0.4,0.9,1,0.9c0.5,0,0.9-0.4,0.9-1V227c0-1.4-0.4-2.5-1.2-3.3c-0.8-0.8-2-1.2-3.6-1.2c-1.3,0-2.4,0.2-3.6,0.7
			c-0.3,0.1-0.6,0.4-0.6,0.8c0,0.5,0.4,0.9,0.9,0.9c0.1,0,0.2,0,0.4-0.1c0.9-0.4,1.8-0.6,2.7-0.6c1.4,0,3,0.5,3,2.7v0.1
			c-0.8-0.2-1.7-0.4-3.1-0.4c-2.9,0-4.8,1.4-4.8,3.6v0C175,232.7,177.1,233.9,179.2,233.9 M177,230.3c0-1.3,1.1-2,2.9-2
			c1,0,2,0.1,3,0.4v0.9c0,1.5-1.5,2.7-3.4,2.7C178.3,232.3,177,231.7,177,230.3L177,230.3z M188.4,233.8c0.5,0,1-0.4,1-1v-3.6
			c0-2.7,1.3-4.4,3.6-4.7c0.5-0.1,0.9-0.5,0.9-1c0-0.6-0.4-1-1-1c-1.3,0-2.7,0.9-3.5,2.3v-1.3c0-0.6-0.4-1-1-1c-0.5,0-1,0.4-1,1v9.3
			C187.4,233.4,187.9,233.8,188.4,233.8 M204.3,231.6c0-0.5-0.4-0.9-0.9-0.9c-0.3,0-0.5,0.1-0.6,0.2c-0.9,0.8-1.8,1.2-3,1.2
			c-1.9,0-3.3-1.3-3.6-3.3h7.5c0.5,0,0.9-0.4,0.9-0.9c0-2.8-1.8-5.6-5.1-5.6c-3,0-5.3,2.5-5.3,5.8v0c0,3.3,2.4,5.8,5.5,5.8
			c1.7,0,3-0.5,4.2-1.7C204.2,232.1,204.3,231.9,204.3,231.6 M199.6,224.1c2.1,0,3,1.7,3.2,3.3h-6.5
			C196.5,225.5,197.9,224.1,199.6,224.1 M214.5,232.8c0,0.6,0.4,1,1,1c0.5,0,1-0.4,1-1v-5.9c0-2.7-1.7-4.5-4.3-4.5
			c-1.5,0-2.6,0.6-3.5,1.7v-5c0-0.5-0.4-1-1-1c-0.5,0-1,0.4-1,1v13.7c0,0.6,0.4,1,1,1c0.6,0,1-0.4,1-1v-5.4c0-1.9,1.2-3.2,3-3.2
			c1.7,0,2.8,1.1,2.8,3.1V232.8z M230,228.2L230,228.2c0-3.3-2.5-5.8-5.8-5.8c-3.2,0-5.8,2.5-5.8,5.8v0c0,3.2,2.5,5.7,5.7,5.7
			C227.4,234,230,231.4,230,228.2 M228,228.2c0,2.2-1.6,3.9-3.8,3.9c-2.1,0-3.8-1.7-3.8-4v0c0-2.3,1.6-4,3.7-4
			C226.3,224.2,228,225.9,228,228.2L228,228.2z M239.7,232.3v0.6c0,0.6,0.4,1,1,1c0.5,0,1-0.4,1-1v-9.3c0-0.6-0.4-1-1-1
			c-0.5,0-1,0.4-1,1v5.4c0,1.9-1.2,3.2-3,3.2c-1.7,0-2.8-1.1-2.8-3v-5.5c0-0.5-0.4-1-1-1c-0.6,0-1,0.4-1,1v5.9
			c0,2.7,1.7,4.5,4.3,4.5C237.6,233.9,238.8,233.4,239.7,232.3 M243.9,232.5c1.2,0.9,2.8,1.4,4.2,1.4c2.4,0,4-1.4,4-3.4v0
			c0-2.2-2.1-2.8-3.6-3.2l0,0c-1.3-0.4-2.6-0.8-2.6-1.6v0c0-0.8,0.8-1.4,1.9-1.4c0.8,0,1.8,0.3,2.7,0.8c0.1,0,0.2,0.1,0.4,0.1
			c0.5,0,0.9-0.4,0.9-0.9c0-0.3-0.2-0.6-0.5-0.8c-1.1-0.6-2.4-0.9-3.5-0.9c-2.3,0-3.8,1.3-3.8,3.3v0c0,2.2,2.1,2.8,3.7,3.2
			c1.4,0.4,2.5,0.8,2.5,1.7v0c0,0.9-0.8,1.5-2,1.5c-1.1,0-2.2-0.4-3.3-1.1c-0.1-0.1-0.3-0.2-0.5-0.2c-0.5,0-0.9,0.4-0.9,0.9
			C243.5,232.2,243.7,232.4,243.9,232.5 M264.1,228c0-2.8-1.8-5.6-5.2-5.6c-3,0-5.3,2.5-5.3,5.8v0c0,3.3,2.4,5.8,5.5,5.8
			c1.7,0,3-0.5,4.2-1.7c0.2-0.2,0.3-0.4,0.3-0.7c0-0.5-0.4-0.9-0.9-0.9c-0.3,0-0.5,0.1-0.6,0.2c-0.9,0.8-1.8,1.2-3,1.2
			c-1.9,0-3.3-1.3-3.6-3.3h7.5C263.7,229,264.1,228.5,264.1,228 M255.6,227.4c0.3-1.9,1.6-3.3,3.3-3.3c2.1,0,3,1.7,3.2,3.3H255.6z
			 M163,247L163,247c-1.4-0.4-2.6-0.8-2.6-1.7v0c0-0.8,0.8-1.4,1.9-1.4c0.8,0,1.8,0.3,2.7,0.8c0.1,0,0.2,0.1,0.4,0.1
			c0.5,0,0.9-0.4,0.9-0.9c0-0.3-0.2-0.6-0.5-0.8c-1.1-0.6-2.4-0.9-3.5-0.9c-2.3,0-3.8,1.3-3.8,3.2v0c0,2.2,2.1,2.8,3.7,3.2
			c1.4,0.4,2.5,0.8,2.5,1.7v0c0,0.9-0.8,1.5-2,1.5c-1.1,0-2.2-0.4-3.3-1.1c-0.1-0.1-0.3-0.2-0.5-0.2c-0.5,0-0.9,0.4-0.9,0.9
			c0,0.4,0.2,0.6,0.4,0.7c1.2,0.9,2.8,1.4,4.2,1.4c2.4,0,4-1.4,4-3.4v0C166.6,248.1,164.4,247.4,163,247 M173.6,244.2
			c0.5,0,0.9-0.4,0.9-0.9c0-0.5-0.4-0.9-0.9-0.9H171v-2.3c0-0.5-0.5-1-1-1c-0.5,0-1,0.4-1,1v2.3h-0.7c-0.5,0-0.9,0.4-0.9,0.9
			c0,0.5,0.4,0.9,0.9,0.9h0.7v6.3c0,2.1,1.1,3.2,3.2,3.2c0.6,0,1.1-0.1,1.6-0.3c0.4-0.1,0.6-0.4,0.6-0.8c0-0.5-0.4-0.9-0.9-0.9
			c-0.1,0-0.1,0-0.2,0c-0.2,0-0.4,0.1-0.8,0.1c-1.1,0-1.6-0.5-1.6-1.6v-6.1L173.6,244.2z M180.7,242.3c-1.3,0-2.4,0.2-3.6,0.7
			c-0.3,0.1-0.5,0.4-0.5,0.8c0,0.5,0.4,0.9,0.9,0.9c0.1,0,0.2,0,0.4-0.1c0.9-0.4,1.8-0.6,2.7-0.6c1.4,0,3,0.5,3,2.7v0.1
			c-0.8-0.2-1.7-0.4-3.1-0.4c-2.9,0-4.8,1.4-4.8,3.6v0c0,2.3,2.1,3.5,4.2,3.5c1.8,0,3-0.8,3.7-1.5v0.5c0,0.5,0.4,0.9,0.9,0.9
			c0.5,0,0.9-0.4,0.9-1v-5.9c0-1.4-0.4-2.5-1.1-3.3C183.5,242.7,182.3,242.3,180.7,242.3 M183.6,249.3c0,1.5-1.5,2.7-3.4,2.7
			c-1.2,0-2.5-0.6-2.5-1.9v0c0-1.3,1.1-2,2.9-2c1,0,2,0.1,3,0.4V249.3z M193,244.2c0.5,0,0.9-0.4,0.9-0.9c0-0.5-0.4-0.9-0.9-0.9
			h-2.6v-2.3c0-0.5-0.5-1-1-1c-0.5,0-1,0.4-1,1v2.3h-0.7c-0.5,0-0.9,0.4-0.9,0.9c0,0.5,0.4,0.9,0.9,0.9h0.7v6.3
			c0,2.1,1.1,3.2,3.2,3.2c0.6,0,1.1-0.1,1.6-0.3c0.4-0.1,0.6-0.4,0.6-0.8c0-0.5-0.4-0.9-0.9-0.9c-0.1,0-0.1,0-0.2,0
			c-0.2,0-0.4,0.1-0.8,0.1c-1.1,0-1.6-0.5-1.6-1.6v-6.1L193,244.2z M197,242.3c-0.5,0-1,0.4-1,1v9.3c0,0.6,0.4,1,1,1
			c0.6,0,1-0.4,1-1v-9.3C198,242.7,197.6,242.3,197,242.3 M197,238.2c-0.6,0-1.1,0.4-1.1,1v0.3c0,0.6,0.5,1,1.1,1
			c0.6,0,1.1-0.4,1.1-1v-0.3C198.1,238.6,197.7,238.2,197,238.2 M206,242.2c-3.2,0-5.8,2.5-5.8,5.8v0c0,3.2,2.5,5.7,5.7,5.7
			c3.2,0,5.8-2.5,5.8-5.8v0C211.8,244.7,209.3,242.2,206,242.2 M209.8,248c0,2.2-1.6,3.9-3.8,3.9c-2.1,0-3.8-1.7-3.8-4v0
			c0-2.3,1.6-4,3.7-4C208.1,244,209.8,245.7,209.8,248L209.8,248z M219.3,242.2c-1.5,0-2.6,0.6-3.5,1.7v-0.6c0-0.6-0.4-1-1-1
			c-0.5,0-1,0.4-1,1v9.3c0,0.6,0.4,1,1,1c0.6,0,1-0.4,1-1v-5.4c0-1.9,1.2-3.2,3-3.2c1.7,0,2.8,1.1,2.8,3v5.5c0,0.6,0.4,1,1,1
			c0.5,0,1-0.4,1-1v-5.9C223.6,243.9,221.9,242.2,219.3,242.2 M230.9,242.2c-3,0-5.3,2.5-5.3,5.7v0c0,3.3,2.4,5.8,5.5,5.8
			c1.7,0,3-0.5,4.2-1.7c0.2-0.2,0.3-0.4,0.3-0.7c0-0.5-0.4-0.9-0.9-0.9c-0.3,0-0.5,0.1-0.6,0.2c-0.9,0.8-1.8,1.2-3,1.2
			c-1.9,0-3.3-1.3-3.6-3.3h7.5c0.5,0,0.9-0.4,0.9-0.9C236,245,234.2,242.2,230.9,242.2 M227.6,247.2c0.3-1.9,1.6-3.3,3.3-3.3
			c2.1,0,3,1.7,3.2,3.3H227.6z M243.5,242.3c-1.3,0-2.7,0.9-3.5,2.3v-1.3c0-0.6-0.4-1-1-1c-0.5,0-1,0.4-1,1v9.3c0,0.6,0.4,1,1,1
			c0.5,0,1-0.4,1-1v-3.6c0-2.7,1.3-4.4,3.6-4.7c0.5-0.1,0.9-0.5,0.9-1C244.5,242.7,244.1,242.3,243.5,242.3 M254.8,242.3
			c-0.3,0-0.7,0.1-0.9,0.7l-3.2,8l-3.5-8c-0.2-0.5-0.5-0.7-1-0.7c-0.6,0-1,0.4-1,1c0,0.2,0,0.3,0.1,0.5l4.4,9.4l0,0.1
			c-0.6,1.3-1.1,1.8-2,1.8c-0.5,0-0.8-0.1-1.1-0.2c-0.1,0-0.3-0.1-0.5-0.1c-0.5,0-0.9,0.4-0.9,0.9c0,0.4,0.2,0.7,0.6,0.9
			c0.5,0.2,1,0.3,1.8,0.3c1.7,0,2.8-0.9,3.8-3.1l4.2-10c0-0.1,0.1-0.3,0.1-0.4C255.8,242.7,255.3,242.3,254.8,242.3"/>
		<path id="path14135" inkscape:connector-curvature="0" class="st0" d="M117.8,207.1c-17.2,0-31.1,13.9-31.1,31.1
			c0,17.2,13.9,31.1,31.1,31.1c17.2,0,31.1-13.9,31.1-31.1C148.9,221,135,207.1,117.8,207.1"/>
		<path id="path14139" inkscape:connector-curvature="0" class="st1" d="M110.5,254c0-0.9-0.7-1.7-1.6-1.7c-0.9,0-1.7,0.7-1.7,1.7
			c0,0.9,0.7,1.6,1.7,1.6C109.7,255.6,110.5,254.9,110.5,254"/>
		<path id="path14143" inkscape:connector-curvature="0" class="st2" d="M116.5,254c0-0.9-0.7-1.7-1.7-1.7c-0.9,0-1.6,0.7-1.6,1.7
			c0,0.9,0.7,1.6,1.6,1.6C115.7,255.6,116.5,254.9,116.5,254"/>
		<path id="path14147" inkscape:connector-curvature="0" class="st3" d="M122.5,254c0-0.9-0.7-1.7-1.7-1.7s-1.7,0.7-1.7,1.7
			c0,0.9,0.7,1.6,1.7,1.6S122.5,254.9,122.5,254"/>
		<path id="path14151" inkscape:connector-curvature="0" class="st4" d="M128.4,254c0-0.9-0.7-1.7-1.7-1.7c-0.9,0-1.6,0.7-1.6,1.7
			c0,0.9,0.7,1.6,1.6,1.6C127.7,255.6,128.4,254.9,128.4,254"/>
		<path id="path14155" inkscape:connector-curvature="0" class="st5" d="M123,231.5l-4.7,13.2c-0.6,1.6-1.6,2.3-2.9,2.3h-0.2
			c-1.3,0-2.3-0.7-2.8-2.2l-2.9-9.3l-3,9.3c-0.5,1.5-1.6,2.2-2.8,2.2h-0.2c-1.3,0-2.3-0.7-2.9-2.3l-4.5-13c-0.1-0.3-0.2-0.8-0.2-1.3
			c0-1.2,1-2.4,2.5-2.4c1.3,0,2.2,0.8,2.5,2l2.8,9.4l2.9-9.3c0.4-1.2,1.3-2.1,2.7-2.1h0.3c1.3,0,2.3,0.9,2.7,2.1l2.9,9.4l2.9-9.4
			c0.3-1.1,1.1-2,2.5-2c1.4,0,2.4,1.1,2.4,2.4C123.2,230.8,123.1,231.3,123,231.5"/>
		<path id="path14159" inkscape:connector-curvature="0" class="st5" d="M138.6,241.1c0,4.1-3.1,6-7.1,6c-2.3,0-4.7-0.7-7-2.1
			c-0.6-0.3-1-1-1-1.8c0-1.2,0.9-2.1,2.1-2.1c0.4,0,0.8,0.1,1,0.3c1.8,1.1,3.5,1.7,5,1.7c1.5,0,2.2-0.5,2.2-1.4v-0.1
			c0-1.1-1.8-1.5-3.8-2.1c-2.6-0.7-5.5-2-5.5-5.5v-0.1c0-3.8,3-5.9,6.7-5.9c1.9,0,3.9,0.5,5.7,1.4c0.8,0.4,1.2,1.1,1.2,2
			c0,1.2-0.9,2.1-2.1,2.1c-0.4,0-0.6-0.1-1-0.2c-1.5-0.7-2.9-1.2-4-1.2c-1.3,0-1.9,0.5-1.9,1.3v0.1c0,1,1.8,1.5,3.8,2.2
			C135.6,236.4,138.6,237.6,138.6,241.1L138.6,241.1z"/>
	</g>
</g>
</svg>
