<?xml version="1.0" encoding="utf-8"?>
<!-- Generator: Adobe Illustrator 23.1.0, SVG Export Plug-In . SVG Version: 6.00 Build 0)  -->
<svg version="1.1" id="Layer_1" xmlns="http://www.w3.org/2000/svg" xmlns:xlink="http://www.w3.org/1999/xlink" x="0px" y="0px"
	 viewBox="0 0 95 36" style="enable-background:new 0 0 95 36;" xml:space="preserve">
<style type="text/css">
	.st0{fill:#F15B41;}
	.st1{fill:#F99D1D;}
	.st2{fill:#272560;}
	.st3{fill:#00B6BD;}
	.st4{fill:#21285E;}
</style>
<g>
	<path class="st0" d="M35.5,13.9L28,20.5H9.5c-1.7,0-3.4,0.6-4.7,1.7l9.3-8.2l0.1-0.1L26,3.5c1.9-1.7,4.5-2.2,6.9-1.4
		s4.2,2.7,4.8,5.2C38.2,9.7,37.4,12.2,35.5,13.9L35.5,13.9z"/>
	<ellipse class="st1" cx="9.5" cy="8.7" rx="7.1" ry="6.9"/>
	<path class="st2" d="M9.5,20.5c-1.7,0-3.4,0.6-4.7,1.7l-0.1,0.1c-2.9,2.6-3.2,7-0.5,9.8c2.6,2.9,7.1,3.1,10,0.5L28,20.5L9.5,20.5z"
		/>
	<path class="st3" d="M28,20.5L14.3,32.6c-1.3,1.1-3,1.8-4.8,1.8h21.2c4.1-0.1,7-3.1,7-6.9s-3.1-6.9-7-6.9L28,20.5z"/>
	<path class="st4" d="M46.5,28.4c-0.6,0-1.2-0.2-1.6-0.6c-0.4-0.4-0.6-1-0.6-1.6c0-0.6,0.1-1.1,0.4-1.7c0.2-0.5,0.6-0.9,0.9-1.3
		l8.7-9.7h-7.6c-0.7,0-1.3-0.2-1.6-0.7c-0.3-0.5-0.4-1.1-0.4-1.6c0-0.5,0.1-1.1,0.5-1.5C45.7,9.3,46.2,9,46.7,9h13.5
		c0.6,0,1.1,0.2,1.5,0.6c0.4,0.4,0.6,0.9,0.6,1.6c0,0.5-0.1,1-0.3,1.5c-0.2,0.4-0.5,0.8-0.8,1.1l-9.1,10h8.6c0.5,0,1,0.2,1.3,0.6
		c0.3,0.5,0.5,1,0.5,1.6c0,0.6-0.1,1.2-0.4,1.7c-0.3,0.5-0.8,0.7-1.6,0.7L46.5,28.4z M67.7,28.6c-2.4,0-2.9-1.2-2.9-2.2V11.6
		c0-0.8,0.2-1.4,0.7-1.9c0.5-0.5,1.2-0.7,2.2-0.7c0.9,0,1.5,0.2,2,0.6c0.5,0.4,0.7,1,0.7,1.8v14.9c0,0.8-0.3,1.4-0.8,1.8
		C69.2,28.5,68.5,28.6,67.7,28.6z M67.7,7.5c-0.9,0-1.7-0.3-2.3-0.8s-0.9-1.3-0.9-2.2c0-0.8,0.3-1.6,0.9-2.1
		c0.6-0.6,1.3-0.8,2.3-0.8c0.8,0,1.5,0.3,2.1,0.7c0.7,0.5,1,1.2,1,2.2c0,0.9-0.3,1.6-0.9,2.2C69.4,7.3,68.6,7.5,67.7,7.5L67.7,7.5z
		 M76.7,34.3c-2.2,0-2.7-1.2-2.7-2.3V11.1c0-0.7,0.2-1.3,0.7-1.7C75.2,8.9,76,8.7,77,8.7c0.6,0,1.2,0.1,1.8,0.4
		c0.6,0.3,0.9,0.9,0.9,1.7c0.1-0.1,0.3-0.3,0.4-0.4c0.4-0.4,0.8-0.7,1.3-1c1.1-0.7,2.4-1,3.7-1c1.3,0,2.5,0.2,3.7,0.8
		c1,0.5,2,1.2,2.7,2.2c0.7,1,1.3,2.1,1.6,3.3c0.4,1.3,0.5,2.7,0.5,4.1c0,1.4-0.2,2.8-0.6,4.1c-0.4,1.2-0.9,2.3-1.7,3.3
		c-0.8,0.9-1.7,1.7-2.8,2.2c-1.2,0.5-2.5,0.8-3.8,0.8c-0.9,0-1.7-0.1-2.6-0.4c-0.6-0.2-1.2-0.5-1.7-0.8c-0.3-0.2-0.5-0.4-0.8-0.7
		v4.8c0,0.8-0.2,1.4-0.7,1.8S77.7,34.3,76.7,34.3z M83.6,13.1c-0.6,0-1.2,0.1-1.8,0.4c-0.5,0.3-1,0.7-1.3,1.2
		c-0.4,0.5-0.6,1.1-0.8,1.8c-0.2,0.7-0.3,1.5-0.3,2.3c0,1.7,0.4,3.1,1.1,4.1c0.7,1,1.7,1.5,3.1,1.5c1.4,0,2.3-0.5,3-1.5s1-2.4,1-4.1
		c0-0.8-0.1-1.5-0.3-2.2c-0.2-0.6-0.4-1.2-0.8-1.8c-0.3-0.5-0.8-0.9-1.3-1.2C84.8,13.3,84.2,13.1,83.6,13.1z"/>
</g>
</svg>
